<?xml version="1.0" encoding="UTF-8" standalone="yes"?>
<svg xmlns="http://www.w3.org/2000/svg" xmlns:xlink="http://www.w3.org/1999/xlink" width="83.865cm" height="54.056cm" version="1.1" viewBox="-1946.821 -757.289 4358.322 2809.223">
  <!--
	Exported with Concepts: Smarter Sketching
	Version: 3531 on iOS 17.7
	https://concepts.app/
	-->
  <title>F61E4400-9F31-48EF-A5BA-041CD0DE6DAE</title>
  <desc>Drawing exported from Concepts: Smarter Sketching</desc>
  <defs></defs>
  <rect x="-1946.821" y="-757.289" width="4358.322" height="2809.223" stroke="none" fill="white"></rect>
  <g id="Pen" opacity="1.000">
    <path id="STROKE_00a3d88a-9611-40ca-a440-6366635b76bb" opacity="1.000" fill="none" stroke="#000000" stroke-width="5.378" stroke-opacity="1.000" stroke-linecap="round" stroke-linejoin="round" d="M -96.798 528.309 Q -96.176 528.321 -93.841 525.878 Q -91.506 523.435 -90.411 521.491 Q -89.317 519.548 -89.101 518.355 Q -88.886 517.162 -88.561 516.058 Q -88.236 514.954 -89.192 514.455 Q -90.147 513.956 -91.272 513.832 Q -92.397 513.708 -95.143 513.660 Q -97.890 513.611 -101.237 514.548 Q -104.585 515.485 -108.358 518.618 Q -112.131 521.750 -113.966 523.633 Q -115.802 525.517 -117.770 528.226 Q -119.737 530.935 -120.970 533.671 Q -122.203 536.408 -122.575 539.049 Q -122.948 541.690 -122.759 543.695 Q -122.571 545.701 -121.137 547.676 Q -119.703 549.651 -116.983 550.951 Q -114.264 552.252 -111.259 552.830 Q -108.254 553.409 -104.356 552.672 Q -100.458 551.934 -96.670 549.956 "></path>
    <path id="STROKE_188955f0-4aff-4e63-9b83-c407f4186071" opacity="1.000" fill="none" stroke="#000000" stroke-width="5.378" stroke-opacity="1.000" stroke-linecap="round" stroke-linejoin="round" d="M -69.724 516.067 Q -69.441 515.781 -69.595 514.245 Q -69.749 512.709 -69.860 511.990 Q -69.971 511.271 -70.505 511.037 Q -71.039 510.804 -71.423 510.826 Q -71.808 510.847 -71.777 510.554 Q -71.746 510.261 -73.494 513.996 Q -75.242 517.731 -76.415 522.619 Q -77.589 527.507 -79.026 534.011 Q -80.464 540.516 -81.405 544.559 Q -82.347 548.603 -81.503 554.893 Q -80.849 556.259 -74.880 548.568 "></path>
    <path id="STROKE_bd06980b-7110-4fd5-a9de-799be58e1506" opacity="1.000" fill="none" stroke="#000000" stroke-width="5.378" stroke-opacity="1.000" stroke-linecap="round" stroke-linejoin="round" d="M -58.392 538.770 Q -57.755 538.875 -56.918 538.761 Q -56.080 538.646 -55.879 538.347 Q -55.679 538.047 -55.724 537.300 Q -55.770 536.553 -55.852 535.702 Q -55.934 534.851 -55.912 535.013 Q -55.890 535.176 -57.598 534.660 Q -59.306 534.144 -61.783 536.948 Q -64.260 539.751 -65.236 542.276 Q -66.212 544.801 -66.367 546.910 Q -66.523 549.020 -66.051 550.231 Q -65.580 551.442 -63.979 551.844 Q -62.378 552.245 -61.111 552.145 Q -59.844 552.044 -58.000 550.510 Q -56.156 548.976 -54.642 547.554 Q -53.128 546.133 -50.849 541.162 Q -50.775 542.109 -51.175 544.964 Q -51.576 547.819 -51.555 550.161 Q -51.534 552.503 -50.559 553.851 Q -49.584 555.198 -47.822 555.621 Q -46.060 556.044 -43.960 555.938 Q -41.859 555.832 -39.228 552.198 Q -36.597 548.565 -34.022 544.537 Q -31.448 540.508 -30.544 535.824 Q -31.254 535.354 -33.438 536.296 Q -35.622 537.238 -37.012 541.219 Q -36.041 542.442 -16.151 542.715 Q -15.570 542.791 -16.390 545.096 Q -17.210 547.401 -20.181 550.301 Q -23.152 553.201 -25.301 554.587 Q -27.449 555.973 -29.077 556.182 Q -30.705 556.391 -31.466 556.517 Q -32.227 556.644 -32.562 555.584 Q -32.896 554.525 -32.978 553.485 Q -33.060 552.445 -32.714 551.168 Q -32.369 549.891 -30.848 548.417 Q -29.327 546.942 -21.972 543.605 "></path>
    <path id="STROKE_baf34313-89fd-4fca-92c1-49bae129c065" opacity="1.000" fill="none" stroke="#000000" stroke-width="5.378" stroke-opacity="1.000" stroke-linecap="round" stroke-linejoin="round" d="M -2.186 538.973 Q -1.489 538.561 -0.127 537.334 Q 1.236 536.107 1.740 535.187 Q 2.244 534.267 2.421 533.601 Q 2.597 532.934 2.372 532.128 Q 2.148 531.322 2.095 531.471 Q 2.042 531.620 2.096 531.586 Q 2.150 531.552 0.311 531.206 Q -1.527 530.861 -3.772 531.742 Q -6.018 532.624 -7.528 533.936 Q -9.038 535.248 -9.527 536.469 Q -10.016 537.691 -9.906 538.575 Q -9.796 539.459 -6.201 541.071 Q -2.605 542.682 0.049 543.964 Q 2.702 545.246 4.208 545.974 Q 5.714 546.703 6.086 547.684 Q 6.458 548.664 6.412 549.411 Q 6.365 550.158 5.783 551.122 Q 5.202 552.085 3.813 553.631 Q 2.424 555.176 0.759 556.422 Q -0.906 557.669 -2.802 557.724 Q -4.698 557.780 -5.725 557.810 Q -6.752 557.840 -7.400 556.799 Q -8.048 555.758 -8.004 555.045 Q -7.961 554.332 -7.856 553.929 Q -7.751 553.525 -6.085 552.208 "></path>
    <path id="STROKE_28f44877-a05a-45d2-9a8d-d286eb38286c" opacity="1.000" fill="none" stroke="#000000" stroke-width="5.378" stroke-opacity="1.000" stroke-linecap="round" stroke-linejoin="round" d="M 6.158 547.716 Q 6.094 547.881 5.630 548.568 Q 6.126 547.839 11.212 546.487 Q 16.298 545.134 20.542 543.043 Q 24.787 540.952 27.448 539.220 Q 30.109 537.488 31.091 535.035 Q 30.657 534.450 26.205 534.938 Q 21.754 535.426 16.954 537.621 Q 12.155 539.817 9.264 541.752 Q 6.373 543.687 5.112 545.104 Q 3.850 546.522 3.485 547.591 Q 3.120 548.660 3.006 549.406 Q 2.891 550.152 3.180 550.818 Q 3.469 551.484 6.657 551.928 Q 9.844 552.371 13.894 551.543 Q 17.944 550.716 22.050 548.881 Q 26.156 547.047 29.759 545.145 Q 33.362 543.242 35.655 541.628 Q 37.948 540.014 39.158 538.241 Q 40.368 536.467 40.376 535.087 Q 40.384 533.707 39.677 533.438 Q 38.971 533.170 37.788 533.633 Q 36.605 534.097 35.713 535.612 Q 34.821 537.127 34.351 538.496 Q 33.882 539.865 33.941 540.604 Q 34.000 541.343 36.059 541.481 Q 38.118 541.619 43.128 541.397 Q 48.138 541.174 54.074 542.944 Q 54.854 543.737 50.267 547.083 Q 45.681 550.428 42.231 552.665 Q 38.781 554.903 36.227 555.649 Q 33.672 556.395 31.776 556.553 Q 29.880 556.711 28.276 554.931 "></path>
    <path id="STROKE_dc590872-ae9e-42ef-933d-61a91f37004d" opacity="1.000" fill="none" stroke="#000000" stroke-width="5.378" stroke-opacity="1.000" stroke-linecap="round" stroke-linejoin="round" d="M 75.427 534.863 Q 76.321 534.542 76.256 532.120 Q 76.192 532.089 76.119 532.089 Q 76.055 532.356 75.427 533.616 "></path>
    <circle id="STROKE_25e3b318-4dbf-40a8-a3aa-3f5fd394080a" opacity="1.000" fill="#000000" stroke="#000000" stroke-width="0.1" stroke-opacity="1.000" fill-opacity="1.000" cx="74.971" cy="546.125" r="2.689"></circle>
    <path id="STROKE_b5dbe2de-dd62-4ce6-8029-d68dd6e766f2" opacity="1.000" fill="none" stroke="#000000" stroke-width="5.378" stroke-opacity="1.000" stroke-linecap="round" stroke-linejoin="round" d="M -45.948 639.724 Q -45.552 638.841 -46.714 635.486 Q -46.750 635.486 -46.777 635.486 Q -46.855 636.142 -47.233 640.779 Q -47.612 645.416 -47.544 648.523 Q -47.477 651.630 -46.519 654.203 Q -45.561 656.776 -41.448 658.596 "></path>
    <path id="STROKE_0eeb4e3e-d68c-4a67-9645-c2353de7944a" opacity="1.000" fill="none" stroke="#000000" stroke-width="5.378" stroke-opacity="1.000" stroke-linecap="round" stroke-linejoin="round" d="M -38.059 643.300 Q -38.059 643.018 -38.059 641.645 Q -38.232 641.733 -38.251 645.340 Q -38.269 648.947 -38.407 651.297 Q -38.544 653.647 -37.800 655.483 Q -37.055 657.319 -34.461 657.731 Q -34.321 657.594 -34.188 652.157 Q -34.054 646.720 -33.635 643.448 Q -33.215 640.177 -32.767 638.154 Q -32.320 636.132 -31.455 635.357 Q -30.591 634.583 -29.479 634.575 Q -28.367 634.568 -26.815 636.117 Q -25.263 637.666 -22.914 642.433 Q -20.565 647.199 -19.777 649.508 Q -18.990 651.817 -18.329 653.495 Q -17.668 655.173 -18.274 659.321 "></path>
    <path id="STROKE_1fb0510d-6bff-4923-9e01-868eb2752e81" opacity="1.000" fill="none" stroke="#000000" stroke-width="5.378" stroke-opacity="1.000" stroke-linecap="round" stroke-linejoin="round" d="M 0.346 640.194 Q 1.387 640.417 0.929 630.128 Q -0.760 629.792 -0.558 629.761 Q -0.356 629.730 -1.600 629.939 Q -2.844 630.147 -5.427 631.968 Q -8.011 633.788 -10.460 636.517 Q -12.910 639.245 -13.400 643.465 Q -13.103 644.117 -6.118 644.063 Q 0.868 644.009 4.733 643.981 Q 8.597 643.953 10.596 644.171 Q 12.595 644.389 13.579 644.858 Q 14.562 645.328 14.840 647.348 Q 15.118 649.369 10.732 652.626 Q 6.346 655.882 1.911 657.768 Q -2.523 659.655 -5.142 660.203 Q -7.760 660.750 -9.579 660.807 Q -11.397 660.863 -12.700 660.045 Q -14.004 659.228 -14.758 658.401 Q -15.512 657.573 -15.960 653.162 "></path>
    <path id="STROKE_a0333016-95fb-46d5-a84b-ff7e21c13636" opacity="1.000" fill="none" stroke="#000000" stroke-width="5.378" stroke-opacity="1.000" stroke-linecap="round" stroke-linejoin="round" d="M 20.205 607.158 Q 20.104 607.162 17.745 598.148 Q 17.488 598.970 19.085 606.900 Q 20.682 614.829 21.654 619.210 Q 22.625 623.590 22.967 629.643 Q 23.310 635.695 22.919 650.388 Q 23.027 650.409 22.879 646.983 Q 22.731 643.557 22.680 641.240 Q 22.630 638.923 23.073 637.395 Q 23.516 635.868 25.857 634.623 Q 28.198 633.377 37.950 631.185 "></path>
    <path id="STROKE_a55c19b7-b704-4e93-ac30-de72f622f318" opacity="1.000" fill="none" stroke="#000000" stroke-width="5.378" stroke-opacity="1.000" stroke-linecap="round" stroke-linejoin="round" d="M 58.938 643.834 Q 58.569 642.576 57.316 640.391 Q 56.063 638.206 54.551 637.348 Q 53.038 636.491 51.128 636.357 Q 49.218 636.223 47.886 636.818 Q 46.554 637.414 45.141 640.494 Q 43.729 643.574 43.066 645.517 Q 42.403 647.460 41.947 649.365 Q 41.491 651.269 41.322 653.360 Q 41.153 655.452 41.084 656.640 Q 41.015 657.829 41.017 658.968 Q 41.018 660.108 42.170 660.895 Q 43.322 661.683 45.389 660.685 Q 47.457 659.687 49.535 658.175 Q 51.612 656.663 54.353 654.200 Q 57.094 651.737 58.683 644.432 Q 58.133 645.290 57.559 648.095 Q 56.985 650.899 57.031 652.985 Q 57.078 655.070 58.117 656.685 Q 59.157 658.300 62.554 658.779 Q 65.951 659.259 66.627 641.518 Q 65.740 642.414 66.089 656.178 Q 67.463 655.753 67.171 655.800 Q 66.879 655.848 67.177 655.730 Q 67.475 655.612 67.601 652.479 Q 67.728 649.347 68.087 645.546 Q 68.447 641.746 68.958 639.723 Q 69.469 637.699 70.033 636.251 Q 70.598 634.802 71.165 634.399 Q 71.733 633.997 72.326 633.853 Q 72.918 633.708 73.600 634.343 Q 74.282 634.978 75.365 636.986 Q 76.449 638.993 77.508 642.649 Q 78.567 646.305 79.264 650.343 Q 79.961 654.381 80.105 656.401 Q 80.250 658.421 80.514 659.103 Q 80.778 659.785 81.436 660.421 Q 82.093 661.056 83.643 659.449 "></path>
    <path id="STROKE_3f0591a9-6561-493d-86c9-9831814e905f" opacity="1.000" fill="none" stroke="#000000" stroke-width="5.378" stroke-opacity="1.000" stroke-linecap="round" stroke-linejoin="round" d="M 100.660 646.748 Q 100.893 646.956 101.813 646.458 Q 102.734 645.960 103.054 644.924 Q 103.375 643.888 103.349 642.114 Q 103.323 640.340 102.865 639.362 Q 102.407 638.384 101.771 637.526 Q 101.134 636.669 100.528 636.359 Q 99.922 636.050 98.936 635.840 Q 97.950 635.630 95.797 635.857 Q 93.644 636.083 92.197 637.513 Q 90.749 638.944 89.714 640.476 Q 88.679 642.009 88.426 643.238 Q 88.174 644.467 87.878 645.959 Q 87.583 647.450 89.287 649.117 Q 90.990 650.785 96.771 651.396 Q 102.551 652.008 105.723 651.831 Q 108.894 651.653 110.463 651.904 Q 112.031 652.155 112.729 653.216 Q 113.426 654.277 112.669 656.236 Q 111.911 658.195 109.793 660.321 Q 107.675 662.448 104.171 664.368 Q 100.668 666.288 98.066 667.044 Q 95.463 667.799 93.756 668.039 Q 92.049 668.279 90.653 667.855 Q 89.257 667.432 88.592 666.279 Q 87.927 665.127 87.632 663.841 Q 87.337 662.556 90.403 658.660 "></path>
    <path id="STROKE_4f63e760-56ed-4d9d-883e-680c84c4acd0" opacity="1.000" fill="none" stroke="#000000" stroke-width="5.378" stroke-opacity="1.000" stroke-linecap="round" stroke-linejoin="round" d="M 117.349 646.214 Q 117.316 645.733 116.904 644.897 Q 116.491 644.061 115.918 643.694 Q 115.962 643.079 115.722 647.369 Q 115.482 651.659 116.461 655.089 Q 117.440 658.518 118.600 660.697 Q 119.760 662.876 121.087 664.609 Q 122.414 666.341 125.000 666.734 Q 125.392 666.136 125.620 665.608 "></path>
    <path id="STROKE_9533c052-38f5-4a66-8f94-b9b6038afc43" opacity="1.000" fill="none" stroke="#000000" stroke-width="5.378" stroke-opacity="1.000" stroke-linecap="round" stroke-linejoin="round" d="M 109.660 626.756 Q 108.867 626.756 108.968 626.756 Q 108.879 626.383 108.387 627.352 Q 107.896 628.321 108.348 629.594 "></path>
    <path id="STROKE_6055513d-cb81-4603-be55-db1c6ba1f45d" opacity="1.000" fill="none" stroke="#000000" stroke-width="5.378" stroke-opacity="1.000" stroke-linecap="round" stroke-linejoin="round" d="M 151.983 645.285 Q 152.147 645.355 152.876 645.457 Q 152.929 645.607 152.701 643.572 Q 152.474 641.537 150.913 639.896 Q 149.353 638.256 147.343 637.621 Q 145.333 636.987 144.038 637.017 Q 142.743 637.048 141.774 637.501 Q 140.806 637.955 139.497 639.096 Q 138.188 640.238 136.942 642.431 Q 135.695 644.625 135.024 647.314 Q 134.352 650.002 134.286 651.489 Q 134.220 652.975 134.067 655.033 Q 133.914 657.090 135.612 658.316 Q 137.310 659.542 139.742 660.049 Q 142.174 660.556 144.217 660.192 Q 146.260 659.828 148.849 657.636 Q 151.437 655.444 151.682 643.834 Q 150.497 643.351 150.317 646.879 Q 150.137 650.406 150.397 652.877 Q 150.658 655.349 151.755 657.436 Q 152.851 659.523 155.063 659.981 Q 157.275 660.439 158.659 660.424 Q 160.044 660.408 161.149 659.499 Q 162.255 658.589 162.896 655.415 "></path>
    <path id="STROKE_7e146f53-15a1-4fa0-acdf-f9fdf7467825" opacity="1.000" fill="none" stroke="#000000" stroke-width="5.378" stroke-opacity="1.000" stroke-linecap="round" stroke-linejoin="round" d="M 155.226 623.702 Q 154.947 623.161 151.181 609.271 Q 151.095 610.782 153.893 620.244 Q 156.690 629.706 159.233 638.413 Q 161.776 647.121 163.037 651.319 Q 164.297 655.517 164.821 657.638 Q 165.346 659.758 167.669 660.976 Q 168.404 661.821 167.895 656.419 Q 167.385 651.017 166.743 648.074 Q 166.101 645.131 166.144 643.331 Q 166.186 641.531 166.514 641.120 Q 166.842 640.710 168.390 640.456 Q 169.939 640.201 171.887 642.936 Q 173.834 645.671 174.760 647.547 Q 175.686 649.423 176.514 651.914 Q 177.342 654.405 177.612 657.114 Q 177.883 659.823 177.298 661.969 Q 176.714 664.115 175.226 665.168 Q 173.738 666.221 172.474 666.451 Q 171.209 666.680 169.661 666.532 Q 168.113 666.384 167.466 664.203 Q 166.819 662.021 167.068 657.400 "></path>
    <path id="STROKE_fb0c1bdc-7413-45fd-b159-bde813c45bde" opacity="1.000" fill="none" stroke="#000000" stroke-width="5.378" stroke-opacity="1.000" stroke-linecap="round" stroke-linejoin="round" d="M 192.957 646.277 Q 192.839 646.694 190.388 650.846 Q 190.352 648.868 192.417 638.363 Q 194.483 627.858 196.087 622.330 Q 197.690 616.801 198.376 611.798 Q 199.062 606.794 199.100 603.440 Q 199.138 600.086 198.736 598.023 Q 198.334 595.959 196.712 594.253 Q 195.091 592.547 192.358 597.901 Q 189.624 603.254 187.067 611.807 Q 184.510 620.361 183.324 625.976 Q 182.138 631.592 181.931 635.957 Q 181.725 640.323 181.952 643.260 Q 182.179 646.197 183.551 648.788 Q 184.923 651.378 186.142 652.982 Q 187.361 654.585 189.284 655.560 Q 191.207 656.534 192.751 656.210 Q 194.295 655.885 195.030 655.348 Q 195.764 654.810 197.977 652.505 Q 200.190 650.200 202.049 647.739 Q 203.907 645.279 204.484 642.773 Q 205.061 640.267 205.136 639.298 Q 205.211 638.328 205.143 637.510 Q 205.076 636.691 204.629 636.433 Q 204.182 636.176 203.662 636.103 Q 203.141 636.029 202.654 637.773 Q 202.167 639.517 202.002 641.452 Q 201.837 643.387 202.238 644.558 Q 202.639 645.729 204.482 646.424 Q 206.324 647.118 208.382 646.990 Q 210.440 646.862 212.105 644.955 Q 213.771 643.048 214.916 640.282 Q 216.061 637.517 216.429 635.778 Q 216.797 634.040 216.830 632.609 Q 216.864 631.179 216.244 630.545 Q 215.623 629.910 214.425 629.751 Q 213.227 629.591 211.758 630.727 Q 210.289 631.863 208.402 634.838 Q 206.515 637.813 205.758 640.539 Q 205.002 643.266 205.050 644.684 Q 205.099 646.103 205.256 647.126 Q 205.412 648.149 206.618 649.447 Q 207.823 650.745 210.685 651.473 Q 213.547 652.201 215.798 652.108 Q 218.048 652.015 221.385 650.971 Q 224.721 649.928 229.475 646.033 Q 234.229 642.138 236.759 639.150 Q 239.289 636.162 240.515 634.571 Q 241.741 632.981 242.366 632.050 Q 242.991 631.120 244.183 629.460 Q 245.375 627.801 246.011 624.306 Q 245.311 623.096 242.190 625.736 Q 239.068 628.375 236.523 632.372 Q 233.979 636.370 232.525 639.011 Q 231.070 641.652 230.650 643.612 Q 230.230 645.571 230.453 646.934 Q 230.677 648.296 233.059 649.902 Q 235.440 651.508 237.932 652.159 Q 240.423 652.809 243.524 652.863 Q 243.980 652.309 243.186 653.469 Q 242.391 654.628 237.674 657.024 Q 232.958 659.421 219.320 664.017 "></path>
    <path id="STROKE_f950922a-edb3-4a32-92c0-609a7531acf2" opacity="1.000" fill="none" stroke="#000000" stroke-width="5.378" stroke-opacity="1.000" stroke-linecap="round" stroke-linejoin="round" d="M -1851.466 1578.417 Q -1850.868 1581.376 -1849.496 1568.931 Q -1850.360 1568.311 -1859.487 1567.370 Q -1868.615 1566.429 -1875.448 1567.483 Q -1882.282 1568.537 -1888.596 1571.057 Q -1894.909 1573.577 -1897.641 1578.735 Q -1900.374 1583.892 -1900.905 1588.721 Q -1901.437 1593.551 -1899.223 1598.148 Q -1897.009 1602.745 -1889.011 1605.090 Q -1881.013 1607.434 -1874.503 1607.178 Q -1867.992 1606.922 -1862.625 1605.117 Q -1857.257 1603.312 -1853.378 1599.918 Q -1849.500 1596.525 -1849.023 1591.867 Q -1848.546 1587.208 -1848.830 1583.855 Q -1849.114 1580.502 -1849.920 1579.683 Q -1850.725 1578.863 -1850.530 1578.925 Q -1850.335 1578.988 -1851.976 1577.446 Q -1853.616 1575.905 -1858.317 1566.517 "></path>
    <path id="STROKE_b1e709db-b72f-4c7d-aa68-2a0c21a0c4b1" opacity="1.000" fill="none" stroke="#000000" stroke-width="5.378" stroke-opacity="1.000" stroke-linecap="round" stroke-linejoin="round" d="M -1838.249 1556.184 Q -1835.649 1556.806 -1843.524 1537.001 Q -1843.645 1537.001 -1843.766 1537.001 Q -1844.878 1537.552 -1844.191 1591.842 Q -1843.868 1591.065 -1844.343 1584.089 Q -1844.818 1577.113 -1841.323 1570.747 Q -1837.829 1564.380 -1835.371 1561.616 Q -1832.913 1558.852 -1827.426 1557.516 Q -1821.939 1556.180 -1816.955 1557.164 Q -1811.972 1558.148 -1809.432 1562.194 Q -1806.892 1566.240 -1806.320 1569.041 Q -1805.747 1571.842 -1805.635 1573.085 Q -1805.524 1574.327 -1804.750 1578.270 Q -1803.976 1582.212 -1808.054 1587.518 Q -1812.132 1592.824 -1816.834 1595.809 Q -1821.536 1598.793 -1827.065 1601.323 Q -1832.594 1603.853 -1836.986 1604.459 Q -1841.379 1605.066 -1844.449 1604.447 Q -1847.519 1603.828 -1846.616 1594.933 "></path>
    <path id="STROKE_dd1a28b7-6952-45b8-85eb-488e0568ce0e" opacity="1.000" fill="none" stroke="#000000" stroke-width="5.378" stroke-opacity="1.000" stroke-linecap="round" stroke-linejoin="round" d="M -1780.955 1563.638 Q -1785.608 1563.638 -1784.260 1563.638 Q -1788.512 1564.234 -1788.164 1564.211 Q -1787.815 1564.188 -1787.997 1564.252 Q -1788.178 1564.316 -1787.770 1563.984 Q -1787.361 1563.653 -1789.796 1565.690 Q -1792.230 1567.728 -1792.033 1568.780 Q -1791.836 1569.831 -1791.796 1572.068 Q -1791.756 1574.304 -1792.310 1577.532 Q -1792.865 1580.760 -1785.486 1591.009 Q -1778.107 1601.258 -1772.480 1606.403 Q -1766.853 1611.549 -1764.602 1618.977 Q -1762.350 1626.405 -1762.584 1633.553 Q -1762.818 1640.701 -1768.416 1647.947 Q -1774.013 1655.193 -1779.557 1658.958 Q -1785.102 1662.724 -1790.897 1664.413 Q -1796.693 1666.103 -1804.728 1665.541 Q -1812.764 1664.980 -1819.865 1661.661 Q -1826.966 1658.343 -1830.192 1655.318 Q -1833.417 1652.293 -1828.791 1637.663 "></path>
    <path id="STROKE_3a890066-ca14-4760-a83b-f0d751247996" opacity="1.000" fill="none" stroke="#000000" stroke-width="5.378" stroke-opacity="1.000" stroke-linecap="round" stroke-linejoin="round" d="M -1740.637 1564.993 Q -1740.519 1564.141 -1743.487 1570.604 Q -1736.325 1572.850 -1728.262 1570.484 Q -1720.198 1568.119 -1717.053 1554.512 Q -1716.330 1553.893 -1724.269 1552.862 Q -1732.208 1551.832 -1740.802 1554.023 Q -1749.396 1556.215 -1753.609 1560.313 Q -1757.821 1564.411 -1759.691 1570.404 Q -1761.562 1576.396 -1761.331 1580.436 Q -1761.100 1584.475 -1759.847 1587.246 Q -1758.595 1590.018 -1751.448 1591.839 Q -1744.301 1593.661 -1734.781 1590.580 Q -1725.261 1587.498 -1710.626 1567.830 "></path>
    <path id="STROKE_cd1220c5-c42c-427e-beb6-5ba5168d3ef0" opacity="1.000" fill="none" stroke="#000000" stroke-width="5.378" stroke-opacity="1.000" stroke-linecap="round" stroke-linejoin="round" d="M -1712.869 1513.412 Q -1713.129 1513.297 -1717.144 1509.686 Q -1716.981 1511.241 -1717.279 1529.547 Q -1717.577 1547.852 -1696.136 1582.144 Q -1696.301 1579.879 -1697.521 1577.865 Q -1698.741 1575.850 -1700.204 1570.779 Q -1701.667 1565.708 -1701.420 1562.779 Q -1701.172 1559.849 -1699.391 1555.820 Q -1697.610 1551.790 -1667.035 1548.011 "></path>
    <path id="STROKE_505caf24-970f-4fe8-8ad4-e019863626c9" opacity="1.000" fill="none" stroke="#000000" stroke-width="5.378" stroke-opacity="1.000" stroke-linecap="round" stroke-linejoin="round" d="M -1872.383 1704.404 Q -1872.383 1704.298 -1872.383 1703.769 L -1872.504 1703.769 Q -1871.929 1702.708 -1873.763 1708.531 Q -1875.597 1714.354 -1874.050 1745.609 Q -1874.554 1745.280 -1870.625 1746.922 "></path>
    <path id="STROKE_15cb9598-a02f-449d-9976-5025bdaff71b" opacity="1.000" fill="none" stroke="#000000" stroke-width="5.378" stroke-opacity="1.000" stroke-linecap="round" stroke-linejoin="round" d="M -1855.225 1708.597 Q -1855.361 1711.180 -1855.407 1710.926 Q -1857.879 1711.912 -1859.499 1742.306 Q -1854.640 1738.954 -1856.195 1739.342 Q -1854.432 1736.958 -1854.174 1727.122 Q -1853.916 1717.285 -1852.786 1712.601 Q -1851.656 1707.916 -1848.768 1706.255 Q -1845.880 1704.595 -1842.098 1709.739 Q -1838.317 1714.883 -1838.916 1751.114 L -1839.007 1751.114 Q -1838.948 1751.386 -1839.583 1745.186 "></path>
    <path id="STROKE_42b7f5e9-7a9c-4e6e-b44d-3112f05af975" opacity="1.000" fill="none" stroke="#000000" stroke-width="5.378" stroke-opacity="1.000" stroke-linecap="round" stroke-linejoin="round" d="M -1805.873 1707.961 Q -1805.276 1708.123 -1804.722 1696.951 Q -1807.413 1696.498 -1810.997 1700.123 Q -1814.580 1703.748 -1816.704 1706.471 Q -1818.827 1709.194 -1819.923 1710.727 Q -1821.020 1712.259 -1823.366 1715.920 Q -1825.713 1719.580 -1825.669 1726.785 Q -1823.692 1726.691 -1787.321 1726.023 Q -1787.927 1724.185 -1786.218 1728.754 Q -1784.508 1733.324 -1786.695 1739.253 Q -1788.883 1745.182 -1795.258 1750.776 Q -1801.633 1756.370 -1806.380 1758.845 Q -1811.127 1761.319 -1814.724 1760.499 Q -1818.321 1759.680 -1821.160 1754.973 Q -1823.998 1750.267 -1824.800 1744.263 Q -1825.602 1738.259 -1823.031 1729.983 "></path>
    <path id="STROKE_059755a3-3261-4bf1-aa51-3d0929411990" opacity="1.000" fill="none" stroke="#000000" stroke-width="5.378" stroke-opacity="1.000" stroke-linecap="round" stroke-linejoin="round" d="M -1772.589 1650.876 Q -1772.346 1650.876 -1771.012 1650.876 Q -1771.012 1656.738 -1771.012 1655.301 Q -1769.338 1652.105 -1775.378 1676.225 Q -1781.418 1700.345 -1781.804 1742.306 Q -1783.066 1739.688 -1781.941 1732.494 Q -1780.816 1725.299 -1778.483 1720.026 Q -1776.150 1714.752 -1770.888 1707.323 Q -1765.625 1699.895 -1740.637 1699.365 "></path>
    <path id="STROKE_61b80ecf-f893-4c9d-8267-08ef6839d676" opacity="1.000" fill="none" stroke="#000000" stroke-width="5.378" stroke-opacity="1.000" stroke-linecap="round" stroke-linejoin="round" d="M -1714.628 1698.475 Q -1714.628 1698.475 -1714.682 1697.877 Q -1714.736 1697.279 -1714.593 1693.925 Q -1714.451 1690.572 -1716.090 1688.785 Q -1717.730 1686.999 -1718.969 1687.042 Q -1720.209 1687.086 -1721.057 1687.223 Q -1721.904 1687.361 -1723.338 1688.669 Q -1724.772 1689.978 -1727.137 1691.974 Q -1729.501 1693.970 -1734.034 1702.849 Q -1738.566 1711.728 -1740.256 1719.905 Q -1741.945 1728.082 -1741.820 1732.081 Q -1741.694 1736.081 -1741.845 1738.902 Q -1741.995 1741.723 -1740.341 1742.434 Q -1738.686 1743.146 -1737.222 1743.374 Q -1735.759 1743.603 -1733.364 1743.641 Q -1730.969 1743.678 -1729.548 1742.494 Q -1728.128 1741.310 -1723.264 1737.115 Q -1718.400 1732.921 -1713.536 1705.293 Q -1714.558 1701.507 -1713.294 1742.750 Q -1710.075 1743.143 -1710.323 1742.984 Q -1704.638 1740.052 -1706.231 1739.998 Q -1703.964 1740.579 -1699.531 1702.456 Q -1697.777 1702.291 -1696.492 1715.057 Q -1695.208 1727.822 -1697.894 1742.518 Q -1697.985 1742.518 -1698.440 1742.412 Q -1698.623 1742.521 -1698.929 1732.518 Q -1699.236 1722.515 -1697.371 1714.998 Q -1695.506 1707.481 -1695.059 1706.131 Q -1694.611 1704.782 -1693.881 1702.865 Q -1693.151 1700.948 -1691.242 1699.042 Q -1689.334 1697.137 -1685.855 1698.426 Q -1682.376 1699.714 -1679.723 1714.661 Q -1677.071 1729.607 -1679.494 1747.494 Q -1679.693 1748.321 -1686.618 1746.922 "></path>
    <path id="STROKE_3be222e1-f6f3-4780-b6d0-bdb18dd622b4" opacity="1.000" fill="none" stroke="#000000" stroke-width="5.378" stroke-opacity="1.000" stroke-linecap="round" stroke-linejoin="round" d="M -1628.232 1687.888 Q -1628.020 1687.888 -1626.717 1687.888 Q -1625.044 1686.681 -1629.362 1685.981 Q -1633.679 1685.281 -1638.843 1688.671 Q -1644.006 1692.062 -1645.229 1694.048 Q -1646.451 1696.034 -1648.743 1698.660 Q -1651.035 1701.286 -1655.138 1708.698 Q -1659.241 1716.110 -1660.963 1721.821 Q -1662.686 1727.532 -1662.679 1732.222 Q -1662.672 1736.913 -1662.237 1738.191 Q -1661.803 1739.469 -1660.586 1740.120 Q -1659.370 1740.770 -1658.151 1741.390 Q -1656.933 1742.010 -1653.231 1741.993 Q -1649.529 1741.975 -1646.464 1741.709 Q -1643.400 1741.443 -1637.144 1735.808 Q -1630.889 1730.172 -1626.474 1721.386 "></path>
    <path id="STROKE_efe8d0db-6f6a-42fd-967b-24d5a5409ba5" opacity="1.000" fill="none" stroke="#000000" stroke-width="5.378" stroke-opacity="1.000" stroke-linecap="round" stroke-linejoin="round" d="M -1619.441 1707.707 Q -1620.642 1706.661 -1618.456 1709.037 Q -1616.271 1711.413 -1612.560 1711.161 Q -1608.849 1710.909 -1606.771 1709.613 Q -1604.693 1708.317 -1604.805 1708.898 Q -1604.917 1709.478 -1603.058 1706.029 Q -1601.199 1702.580 -1601.299 1698.677 Q -1601.399 1694.773 -1603.304 1693.469 Q -1605.208 1692.163 -1606.765 1691.483 Q -1608.321 1690.802 -1612.239 1691.177 Q -1616.157 1691.552 -1620.058 1693.947 Q -1623.960 1696.341 -1627.600 1703.311 Q -1631.240 1710.281 -1631.750 1718.421 Q -1632.259 1726.562 -1631.437 1732.340 Q -1630.615 1738.118 -1625.561 1742.253 Q -1620.506 1746.389 -1613.700 1747.642 Q -1606.895 1748.894 -1600.996 1746.884 Q -1595.097 1744.874 -1587.672 1731.295 "></path>
    <path id="STROKE_322056e8-7db7-416e-b258-5f827e8a988c" opacity="1.000" fill="none" stroke="#000000" stroke-width="5.378" stroke-opacity="1.000" stroke-linecap="round" stroke-linejoin="round" d="M -1852.315 1861.051 Q -1855.163 1860.205 -1859.927 1859.482 Q -1864.692 1858.760 -1867.492 1859.466 Q -1870.293 1860.172 -1871.692 1861.914 Q -1873.091 1863.655 -1875.326 1873.009 Q -1877.560 1882.362 -1877.659 1887.814 Q -1877.758 1893.266 -1875.556 1897.455 Q -1873.354 1901.644 -1868.054 1902.731 Q -1862.755 1903.818 -1858.805 1903.054 Q -1854.855 1902.290 -1850.155 1898.458 Q -1845.454 1894.627 -1843.786 1886.129 Q -1842.117 1877.631 -1842.377 1872.139 Q -1842.636 1866.646 -1846.409 1854.188 Q -1850.181 1841.729 -1872.292 1803.330 Q -1875.004 1805.370 -1868.515 1833.200 Q -1862.026 1861.031 -1856.634 1876.423 Q -1851.241 1891.815 -1848.430 1898.784 Q -1845.618 1905.752 -1843.104 1908.655 Q -1840.590 1911.558 -1839.328 1911.643 Q -1838.066 1911.728 -1835.957 1910.980 Q -1833.847 1910.232 -1831.823 1903.145 "></path>
    <path id="STROKE_aa4e5bf3-98da-42b6-aa9e-68e4c292d9b2" opacity="1.000" fill="none" stroke="#000000" stroke-width="5.378" stroke-opacity="1.000" stroke-linecap="round" stroke-linejoin="round" d="M -1855.892 1810.614 Q -1855.349 1815.931 -1855.316 1814.362 Q -1854.691 1814.852 -1851.833 1823.202 Q -1848.975 1831.552 -1830.549 1855.757 "></path>
    <path id="STROKE_173d8949-e273-41a6-b912-87e84b578384" opacity="1.000" fill="none" stroke="#000000" stroke-width="5.378" stroke-opacity="1.000" stroke-linecap="round" stroke-linejoin="round" d="M -1792.596 1853.132 Q -1793.932 1854.215 -1798.356 1852.666 Q -1798.985 1852.928 -1797.385 1862.901 Q -1795.784 1872.875 -1791.898 1880.001 Q -1788.012 1887.127 -1784.008 1889.303 Q -1780.004 1891.479 -1777.413 1888.757 Q -1774.822 1886.035 -1774.360 1883.420 Q -1773.898 1880.805 -1773.865 1878.099 Q -1773.833 1875.393 -1773.597 1874.123 Q -1773.361 1872.854 -1774.013 1865.843 Q -1774.666 1858.831 -1778.106 1849.829 Q -1778.769 1849.190 -1776.417 1859.929 Q -1774.065 1870.668 -1770.774 1875.544 Q -1767.483 1880.420 -1763.202 1880.017 Q -1758.921 1879.614 -1758.374 1876.911 Q -1757.826 1874.207 -1757.128 1868.758 "></path>
    <path id="STROKE_baebb5b0-0348-4fba-b3d9-cd770d3a9628" opacity="1.000" fill="none" stroke="#000000" stroke-width="5.378" stroke-opacity="1.000" stroke-linecap="round" stroke-linejoin="round" d="M -1757.128 1868.335 Q -1755.807 1868.482 -1761.130 1851.353 Q -1760.248 1855.085 -1761.251 1851.924 Q -1762.254 1848.763 -1749.762 1879.134 Q -1749.550 1879.134 -1749.004 1879.007 Q -1748.279 1876.972 -1753.400 1842.862 Q -1752.141 1842.735 -1749.381 1842.962 Q -1746.622 1843.189 -1739.692 1854.926 Q -1732.761 1866.662 -1725.844 1888.048 Q -1726.611 1888.046 -1727.602 1887.688 "></path>
    <path id="STROKE_776d7a4a-794e-466a-ad84-f4e1388b6fba" opacity="1.000" fill="none" stroke="#000000" stroke-width="5.378" stroke-opacity="1.000" stroke-linecap="round" stroke-linejoin="round" d="M -1702.078 1833.313 Q -1702.078 1832.996 -1702.078 1835.727 Q -1703.147 1836.158 -1696.349 1834.532 Q -1689.550 1832.906 -1686.284 1831.014 Q -1683.018 1829.121 -1682.270 1825.252 Q -1681.523 1821.382 -1682.536 1819.998 Q -1683.550 1818.615 -1688.021 1817.793 Q -1692.492 1816.972 -1697.409 1818.459 Q -1702.326 1819.947 -1707.826 1824.403 Q -1713.326 1828.859 -1714.760 1837.453 Q -1716.195 1846.048 -1715.393 1851.954 Q -1714.590 1857.860 -1712.271 1861.204 Q -1709.951 1864.547 -1703.465 1866.455 Q -1696.979 1868.364 -1686.243 1868.248 Q -1675.506 1868.132 -1660.426 1854.233 "></path>
    <path id="STROKE_4d7727d9-8974-453d-940f-164c432c5086" opacity="1.000" fill="none" stroke="#000000" stroke-width="5.378" stroke-opacity="1.000" stroke-linecap="round" stroke-linejoin="round" d="M -1728.512 1963.915 Q -1728.512 1963.915 -1728.297 1964.054 Q -1728.082 1964.194 -1728.869 1962.960 Q -1729.655 1961.726 -1733.433 1960.315 Q -1737.211 1958.905 -1743.024 1961.860 Q -1748.836 1964.815 -1752.082 1967.081 Q -1755.328 1969.346 -1758.930 1975.434 Q -1762.533 1981.522 -1762.865 1988.429 Q -1763.198 1995.335 -1759.239 1999.635 Q -1755.279 2003.936 -1748.564 2005.338 Q -1741.849 2006.739 -1734.565 2005.465 Q -1727.282 2004.192 -1718.144 1981.786 "></path>
    <path id="STROKE_886d0ca7-6db6-44de-9975-f656fc25e2ae" opacity="1.000" fill="none" stroke="#000000" stroke-width="5.378" stroke-opacity="1.000" stroke-linecap="round" stroke-linejoin="round" d="M -1742.577 1906.448 Q -1743.244 1906.321 -1745.670 1905.347 Q -1745.440 1907.156 -1733.669 1923.411 Q -1721.897 1939.667 -1714.979 1950.285 Q -1708.061 1960.903 -1686.314 1976.705 Q -1685.744 1972.498 -1685.526 1970.988 "></path>
    <path id="STROKE_ce57bb12-6f8d-47df-b932-e695ae0dbeaa" opacity="1.000" fill="none" stroke="#000000" stroke-width="5.378" stroke-opacity="1.000" stroke-linecap="round" stroke-linejoin="round" d="M -1673.825 1938.379 Q -1673.507 1937.668 -1673.778 1937.278 Q -1674.049 1936.887 -1673.651 1937.326 Q -1673.254 1937.765 -1673.821 1937.263 Q -1674.389 1936.760 -1673.778 1937.120 Q -1673.168 1937.480 -1673.413 1937.153 Q -1673.658 1936.825 -1675.873 1935.099 Q -1678.089 1933.374 -1677.536 1933.711 Q -1676.984 1934.047 -1679.024 1933.996 Q -1681.065 1933.944 -1682.548 1940.096 Q -1684.031 1946.248 -1683.144 1951.968 Q -1682.256 1957.688 -1681.274 1959.863 Q -1680.291 1962.037 -1678.458 1964.253 Q -1676.624 1966.469 -1675.267 1967.292 Q -1673.909 1968.114 -1671.934 1968.913 Q -1669.959 1969.713 -1668.326 1969.838 Q -1666.693 1969.962 -1665.501 1969.948 Q -1664.308 1969.934 -1662.359 1969.972 Q -1660.410 1970.009 -1658.078 1968.664 Q -1655.745 1967.319 -1655.408 1967.855 Q -1655.072 1968.391 -1652.890 1964.077 Q -1650.709 1959.763 -1650.765 1957.542 Q -1650.820 1955.320 -1650.661 1952.741 Q -1650.501 1950.163 -1651.392 1947.188 Q -1652.215 1950.045 -1648.497 1953.961 Q -1644.779 1957.877 -1639.940 1959.375 Q -1635.102 1960.873 -1628.718 1956.164 Q -1622.335 1951.455 -1615.661 1943.222 Q -1608.988 1934.990 -1605.484 1927.475 Q -1601.979 1919.961 -1599.642 1912.995 Q -1597.304 1906.030 -1595.432 1895.078 Q -1598.926 1894.523 -1601.455 1897.281 Q -1603.984 1900.040 -1607.198 1904.418 Q -1610.412 1908.797 -1613.591 1925.167 Q -1611.633 1927.589 -1600.120 1921.043 Q -1588.608 1914.497 -1575.122 1910.959 Q -1572.963 1915.136 -1573.048 1916.302 Q -1573.133 1917.468 -1573.209 1917.967 Q -1573.285 1918.465 -1572.380 1924.576 Q -1571.475 1930.687 -1574.078 1939.844 Q -1576.681 1949.001 -1579.483 1952.744 Q -1582.284 1956.487 -1584.392 1958.258 Q -1586.500 1960.030 -1588.003 1959.094 Q -1589.505 1958.158 -1590.475 1956.351 Q -1591.444 1954.543 -1591.474 1952.477 Q -1591.505 1950.411 -1592.672 1946.236 Q -1593.839 1942.061 -1589.010 1930.318 Q -1584.181 1918.575 -1575.766 1905.147 Q -1567.351 1891.719 -1562.067 1884.018 Q -1556.783 1876.318 -1555.963 1865.455 Q -1557.238 1866.236 -1558.113 1866.519 Q -1558.987 1866.802 -1565.993 1876.773 Q -1572.999 1886.745 -1576.880 1904.119 Q -1572.928 1904.292 -1573.273 1904.013 Q -1567.563 1899.708 -1557.499 1894.604 Q -1547.434 1889.501 -1535.471 1890.123 Q -1535.076 1889.942 -1533.171 1899.896 Q -1531.266 1909.850 -1534.975 1918.052 Q -1538.685 1926.254 -1541.425 1931.349 Q -1544.164 1936.443 -1551.689 1938.803 Q -1553.171 1939.632 -1552.613 1931.696 Q -1552.054 1923.761 -1542.222 1910.647 Q -1532.389 1897.533 -1526.337 1886.702 Q -1520.285 1875.872 -1516.494 1864.778 Q -1515.058 1867.603 -1514.968 1867.404 Q -1514.878 1867.205 -1514.574 1866.986 Q -1514.270 1866.766 -1514.834 1867.076 Q -1515.398 1867.386 -1512.458 1867.042 Q -1509.518 1866.698 -1505.514 1861.675 Q -1501.511 1856.651 -1498.921 1853.011 Q -1496.330 1849.372 -1496.245 1840.237 Q -1496.231 1839.978 -1498.816 1839.718 Q -1501.401 1839.459 -1507.904 1844.939 Q -1514.406 1850.420 -1520.312 1860.026 Q -1526.217 1869.632 -1528.157 1877.988 Q -1530.097 1886.345 -1529.700 1891.934 Q -1529.303 1897.523 -1521.202 1899.472 Q -1513.101 1901.422 -1500.667 1892.182 Q -1488.234 1882.942 -1480.275 1875.454 Q -1472.316 1867.967 -1449.318 1841.020 "></path>
    <path id="STROKE_f5b95d7d-4427-4641-95ec-8f405e4bf948" opacity="1.000" fill="none" stroke="#000000" stroke-width="5.378" stroke-opacity="1.000" stroke-linecap="round" stroke-linejoin="round" d="M 1778.417 -653.234 Q 1778.417 -655.896 1778.417 -655.669 Q 1778.259 -660.087 1778.235 -659.184 Q 1778.235 -664.133 1778.235 -662.382 L 1778.235 -662.509 Q 1778.123 -663.298 1777.369 -643.375 Q 1776.615 -623.452 1779.872 -601.802 Q 1781.900 -601.523 1782.476 -601.480 Q 1783.051 -601.437 1783.116 -601.429 Q 1783.182 -601.422 1784.205 -601.617 Q 1785.227 -601.812 1787.026 -602.798 "></path>
    <path id="STROKE_9f360db5-eadb-4ad9-87a3-5bed9cb3bd46" opacity="1.000" fill="none" stroke="#000000" stroke-width="5.378" stroke-opacity="1.000" stroke-linecap="round" stroke-linejoin="round" d="M 1805.578 -645.739 Q 1804.964 -650.143 1804.881 -649.275 Q 1803.175 -652.313 1803.113 -652.543 Q 1803.052 -652.772 1802.789 -652.811 Q 1801.853 -653.730 1800.152 -619.419 Q 1804.581 -619.653 1803.335 -619.970 Q 1805.932 -621.700 1808.984 -631.443 Q 1812.036 -641.186 1813.722 -646.137 Q 1815.408 -651.088 1824.585 -656.114 Q 1830.279 -656.227 1827.465 -606.418 Q 1830.562 -606.558 1833.952 -617.789 "></path>
    <path id="STROKE_057011dc-cdd2-4c88-be8a-971c9a88b669" opacity="1.000" fill="none" stroke="#000000" stroke-width="5.378" stroke-opacity="1.000" stroke-linecap="round" stroke-linejoin="round" d="M 1850.504 -697.743 Q 1850.619 -697.109 1847.169 -711.379 Q 1848.448 -709.138 1846.514 -685.819 Q 1844.581 -662.500 1842.028 -643.870 Q 1839.475 -625.240 1843.653 -601.908 Q 1844.428 -601.324 1843.479 -609.582 Q 1842.531 -617.840 1845.133 -624.432 Q 1847.736 -631.024 1851.167 -634.761 Q 1854.598 -638.497 1855.691 -639.285 Q 1856.783 -640.073 1859.253 -637.535 Q 1861.723 -634.998 1865.904 -630.536 "></path>
    <path id="STROKE_b93f2a42-c3ee-44b0-9e65-30bff104675e" opacity="1.000" fill="none" stroke="#000000" stroke-width="5.378" stroke-opacity="1.000" stroke-linecap="round" stroke-linejoin="round" d="M 1871.663 -617.789 Q 1871.486 -616.102 1870.754 -615.121 Q 1876.120 -615.686 1886.874 -621.488 Q 1897.628 -627.290 1903.281 -640.911 Q 1904.363 -641.088 1897.204 -641.262 Q 1890.044 -641.436 1881.271 -633.804 Q 1872.498 -626.173 1868.797 -620.515 Q 1865.097 -614.856 1864.318 -610.089 Q 1863.540 -605.322 1864.681 -600.354 Q 1865.823 -595.386 1872.319 -593.021 Q 1878.815 -590.655 1883.824 -590.632 Q 1888.834 -590.608 1895.229 -593.026 Q 1901.624 -595.444 1902.281 -618.424 Q 1898.266 -620.151 1895.248 -589.119 Q 1895.034 -591.909 1899.695 -606.159 Q 1904.356 -620.408 1907.438 -627.683 Q 1910.520 -634.958 1912.084 -637.813 Q 1913.649 -640.667 1916.020 -644.086 Q 1918.390 -647.506 1926.107 -640.234 "></path>
    <path id="STROKE_c93e39b7-01c5-4707-8542-47271900ae61" opacity="1.000" fill="none" stroke="#000000" stroke-width="5.378" stroke-opacity="1.000" stroke-linecap="round" stroke-linejoin="round" d="M 1921.439 -524.368 Q 1921.439 -524.131 1921.439 -513.781 Q 1919.152 -516.180 1922.983 -541.709 Q 1926.813 -567.238 1929.965 -582.951 Q 1933.116 -598.663 1934.000 -616.497 Q 1934.884 -634.331 1937.112 -700.051 Q 1938.230 -703.478 1952.654 -688.980 Q 1967.077 -674.483 1978.733 -647.052 "></path>
    <path id="STROKE_524d8c49-c160-4eda-a855-7bb14683d8e6" opacity="1.000" fill="none" stroke="#000000" stroke-width="5.378" stroke-opacity="1.000" stroke-linecap="round" stroke-linejoin="round" d="M 1903.372 -607.413 Q 1903.281 -607.413 1903.190 -607.413 Q 1908.610 -607.413 1907.677 -607.413 Q 1909.065 -608.685 1942.598 -601.908 "></path>
    <path id="STROKE_0aa4ebbf-afae-41fc-8b06-d80e4bec4acd" opacity="1.000" fill="none" stroke="#000000" stroke-width="5.378" stroke-opacity="1.000" stroke-linecap="round" stroke-linejoin="round" d="M 1977.399 -598.393 Q 1977.441 -596.978 1977.355 -602.403 Q 1977.270 -607.828 1976.285 -612.281 Q 1975.300 -616.733 1973.706 -618.801 Q 1972.111 -620.868 1970.789 -621.586 Q 1969.468 -622.303 1968.654 -623.121 Q 1967.840 -623.939 1963.101 -625.231 Q 1958.363 -626.524 1953.643 -626.517 Q 1948.923 -626.511 1946.565 -621.608 Q 1944.207 -616.704 1943.368 -611.352 Q 1942.528 -606.000 1942.978 -601.381 Q 1943.427 -596.763 1944.352 -594.611 Q 1945.278 -592.460 1946.361 -591.083 Q 1947.445 -589.707 1951.222 -587.797 Q 1954.999 -585.888 1959.938 -585.432 Q 1964.878 -584.975 1968.069 -586.052 Q 1971.261 -587.129 1971.996 -588.110 Q 1972.732 -589.092 1975.752 -595.634 Q 1978.772 -602.176 1979.112 -605.433 Q 1979.451 -608.690 1979.309 -611.606 Q 1975.463 -609.060 1976.641 -588.145 Q 1981.796 -587.650 1980.721 -587.709 Q 1979.647 -587.768 1981.718 -588.333 Q 1983.790 -588.897 1983.655 -588.904 Q 1983.520 -588.911 1986.008 -591.999 "></path>
    <path id="STROKE_1db6ca90-d697-45ab-a7a3-4066c2c9bc4c" opacity="1.000" fill="none" stroke="#000000" stroke-width="5.378" stroke-opacity="1.000" stroke-linecap="round" stroke-linejoin="round" d="M 1991.283 -600.129 Q 1990.460 -596.125 2004.985 -633.839 Q 2000.669 -632.581 1996.238 -626.729 Q 1991.806 -620.876 1989.825 -613.999 Q 1987.843 -607.121 1988.917 -602.282 Q 1989.990 -597.443 1994.465 -594.812 Q 1998.940 -592.182 2004.917 -590.871 Q 2010.894 -589.561 2022.810 -597.292 "></path>
    <path id="STROKE_5dc31a71-63c0-41d5-9cb2-64dd73a9e810" opacity="1.000" fill="none" stroke="#000000" stroke-width="5.378" stroke-opacity="1.000" stroke-linecap="round" stroke-linejoin="round" d="M 2025.053 -623.929 Q 2024.408 -624.147 2022.307 -621.712 Q 2020.206 -619.277 2019.627 -615.121 Q 2023.211 -613.841 2032.257 -614.645 Q 2041.303 -615.449 2049.955 -618.443 Q 2058.606 -621.437 2065.371 -632.865 Q 2058.885 -635.528 2049.094 -633.121 Q 2039.303 -630.714 2032.889 -625.125 Q 2026.474 -619.536 2025.402 -614.186 Q 2024.331 -608.835 2023.434 -605.141 Q 2022.537 -601.447 2025.422 -599.378 Q 2028.307 -597.308 2034.801 -596.276 Q 2041.295 -595.244 2054.252 -596.412 Q 2067.209 -597.581 2082.771 -603.898 "></path>
    <path id="STROKE_b5d2cfea-ed3c-4e75-8ca1-a5201f427852" opacity="1.000" fill="none" stroke="#000000" stroke-width="5.378" stroke-opacity="1.000" stroke-linecap="round" stroke-linejoin="round" d="M 1810.611 -458.728 Q 1812.196 -459.585 1823.884 -467.331 Q 1835.571 -475.077 1842.057 -481.428 Q 1848.543 -487.779 1851.838 -494.301 Q 1850.617 -495.675 1840.968 -495.039 Q 1831.318 -494.404 1822.874 -488.943 Q 1814.429 -483.482 1808.120 -477.608 Q 1801.811 -471.734 1797.712 -464.723 Q 1793.613 -457.712 1792.673 -453.395 Q 1791.734 -449.079 1792.319 -446.956 Q 1792.904 -444.833 1795.581 -443.891 Q 1798.257 -442.949 1800.635 -442.693 Q 1803.013 -442.437 1805.203 -442.430 Q 1807.393 -442.424 1806.897 -442.658 Q 1806.400 -442.893 1812.095 -441.467 Q 1817.790 -440.041 1870.572 -459.152 "></path>
    <path id="STROKE_a791dc53-d640-4a06-9d20-b9e5e7cc9ff7" opacity="1.000" fill="none" stroke="#000000" stroke-width="5.378" stroke-opacity="1.000" stroke-linecap="round" stroke-linejoin="round" d="M 1897.673 -474.820 Q 1898.702 -475.665 1898.757 -480.318 Q 1898.812 -484.972 1897.032 -486.056 Q 1895.252 -487.140 1891.824 -487.487 Q 1888.397 -487.834 1883.726 -486.570 Q 1879.054 -485.305 1872.539 -479.566 Q 1866.024 -473.827 1862.727 -467.935 Q 1859.430 -462.043 1858.604 -456.071 Q 1857.778 -450.100 1858.440 -447.069 Q 1859.103 -444.039 1863.284 -443.068 Q 1867.466 -442.096 1873.863 -440.877 Q 1880.260 -439.658 1888.923 -443.932 Q 1897.586 -448.206 1901.850 -456.120 Q 1906.115 -464.035 1907.952 -471.824 Q 1909.788 -479.614 1914.073 -492.077 Q 1914.618 -492.183 1915.528 -492.183 Q 1915.925 -494.186 1918.590 -452.545 Q 1920.720 -452.975 1943.144 -479.225 Q 1944.306 -480.695 1942.265 -448.247 Q 1947.164 -441.464 1975.550 -485.365 Q 1976.393 -480.323 1976.217 -480.537 Q 1977.835 -475.944 1973.216 -432.832 Q 1978.175 -433.260 1977.429 -433.827 Q 1983.065 -434.716 2013.594 -481.638 Q 2015.626 -481.041 2008.315 -459.366 Q 2001.003 -437.690 1997.588 -409.159 Q 1999.335 -406.997 2006.743 -411.128 "></path>
    <path id="STROKE_7d5f9df5-a4b7-4f8c-93ca-1dee75666735" opacity="1.000" fill="none" stroke="#000000" stroke-width="5.378" stroke-opacity="1.000" stroke-linecap="round" stroke-linejoin="round" d="M 2062.946 -445.049 Q 2064.294 -445.248 2061.487 -449.762 Q 2058.681 -454.276 2056.358 -461.037 Q 2054.035 -467.798 2052.838 -473.511 Q 2051.640 -479.223 2053.336 -489.981 Q 2054.760 -489.351 2046.394 -434.505 Q 2049.177 -433.221 2053.124 -439.203 Q 2057.070 -445.186 2060.378 -451.064 Q 2063.686 -456.941 2065.234 -459.775 Q 2066.783 -462.609 2067.553 -473.825 Q 2067.180 -474.304 2066.954 -474.275 Q 2066.728 -474.246 2064.054 -473.647 Q 2061.381 -473.048 2062.033 -473.283 Q 2062.686 -473.517 2061.123 -472.387 Q 2059.559 -471.258 2057.357 -468.313 Q 2055.156 -465.368 2049.729 -463.556 Q 2049.729 -463.662 2049.820 -464.127 Q 2049.866 -465.008 2057.724 -465.312 Q 2065.582 -465.617 2076.324 -469.894 Q 2087.067 -474.171 2097.921 -482.043 Q 2108.775 -489.914 2115.026 -507.069 Q 2115.141 -508.679 2099.355 -502.631 Q 2083.570 -496.583 2075.157 -490.569 Q 2066.745 -484.556 2062.667 -481.321 Q 2058.588 -478.087 2055.161 -470.867 Q 2051.733 -463.648 2051.376 -455.508 Q 2051.018 -447.368 2052.036 -441.618 Q 2053.053 -435.867 2061.504 -433.707 Q 2069.954 -431.546 2081.023 -432.836 Q 2092.092 -434.125 2116.480 -458.940 "></path>
    <path id="STROKE_93166c93-f549-4c47-9b9f-179196b9ad60" opacity="1.000" fill="none" stroke="#000000" stroke-width="5.378" stroke-opacity="1.000" stroke-linecap="round" stroke-linejoin="round" d="M 2189.659 -479.436 Q 2189.098 -480.155 2190.152 -477.822 Q 2191.207 -475.489 2182.141 -469.273 Q 2182.156 -472.585 2182.262 -472.152 Q 2180.775 -471.712 2186.828 -476.916 Q 2192.881 -482.120 2195.691 -498.832 Q 2192.639 -498.124 2186.674 -486.782 Q 2180.710 -475.439 2179.114 -466.071 Q 2177.518 -456.702 2177.261 -451.027 Q 2177.004 -445.352 2179.250 -437.914 Q 2181.496 -430.475 2191.336 -428.362 Q 2201.175 -426.249 2210.525 -427.510 Q 2219.876 -428.771 2229.155 -433.938 Q 2238.434 -439.106 2246.877 -447.958 Q 2255.321 -456.811 2260.975 -471.051 Q 2266.628 -485.292 2268.490 -494.753 Q 2270.353 -504.215 2270.193 -508.081 Q 2270.033 -511.948 2268.574 -516.134 Q 2267.115 -520.320 2262.991 -518.666 Q 2258.866 -517.012 2254.570 -510.933 Q 2250.274 -504.854 2245.758 -497.357 Q 2241.242 -489.859 2239.479 -478.102 Q 2237.716 -466.344 2238.376 -459.320 Q 2239.035 -452.295 2238.746 -451.311 Q 2238.457 -450.326 2241.767 -445.885 Q 2245.077 -441.445 2249.799 -441.103 Q 2254.521 -440.761 2256.599 -441.033 Q 2258.677 -441.306 2265.965 -447.988 Q 2273.252 -454.671 2279.046 -462.790 Q 2284.841 -470.909 2283.845 -490.447 Q 2273.486 -495.208 2268.082 -439.650 Q 2268.796 -440.111 2268.619 -439.135 Q 2268.442 -438.158 2272.396 -442.644 Q 2276.348 -447.131 2281.299 -463.503 Q 2286.249 -479.876 2288.754 -488.624 Q 2291.258 -497.372 2293.051 -501.365 Q 2294.845 -505.358 2297.365 -507.175 Q 2300.334 -507.066 2296.762 -482.456 Q 2293.191 -457.845 2290.454 -431.519 Q 2295.329 -426.494 2309.946 -458.728 "></path>
    <path id="STROKE_4fae462f-85e1-4011-801a-175ab329d291" opacity="1.000" fill="none" stroke="#000000" stroke-width="5.378" stroke-opacity="1.000" stroke-linecap="round" stroke-linejoin="round" d="M 2312.795 -480.072 Q 2313.343 -481.442 2310.613 -477.446 Q 2315.105 -476.149 2325.494 -477.262 Q 2335.882 -478.375 2343.495 -483.239 Q 2351.107 -488.104 2354.776 -490.905 Q 2358.445 -493.706 2360.778 -497.089 Q 2363.110 -500.472 2364.191 -503.439 Q 2365.273 -506.407 2365.435 -507.928 Q 2365.596 -509.448 2365.606 -509.469 Q 2365.615 -509.489 2364.906 -510.142 Q 2364.197 -510.795 2363.720 -510.819 Q 2363.243 -510.844 2360.595 -511.225 Q 2357.947 -511.606 2351.041 -509.831 Q 2344.135 -508.056 2337.062 -502.112 Q 2329.989 -496.168 2324.370 -489.035 Q 2318.750 -481.902 2315.556 -472.378 Q 2312.361 -462.854 2311.776 -456.752 Q 2311.191 -450.649 2312.037 -445.507 Q 2312.883 -440.365 2317.682 -438.289 Q 2322.480 -436.212 2325.340 -436.693 Q 2328.200 -437.175 2329.940 -437.169 Q 2331.681 -437.164 2334.299 -439.909 Q 2336.917 -442.654 2338.414 -445.897 Q 2339.912 -449.140 2339.714 -453.223 "></path>
    <path id="STROKE_a2f66e87-5244-49d5-a4d8-d40f8ace88d9" opacity="1.000" fill="none" stroke="#000000" stroke-width="5.378" stroke-opacity="1.000" stroke-linecap="round" stroke-linejoin="round" d="M 1932.716 -313.981 Q 1928.493 -313.017 1929.412 -312.986 Q 1928.957 -312.668 1928.532 -311.779 Q 1928.945 -312.327 1927.623 -329.946 Q 1927.925 -329.699 1926.345 -330.452 Q 1924.765 -331.205 1921.366 -331.299 Q 1917.967 -331.393 1916.878 -330.529 Q 1915.789 -329.665 1912.065 -327.819 Q 1908.341 -325.973 1904.724 -318.033 Q 1901.107 -310.094 1899.772 -304.565 Q 1898.438 -299.037 1897.716 -290.167 Q 1896.994 -281.297 1897.615 -273.121 Q 1898.236 -264.946 1901.609 -257.356 Q 1904.983 -249.766 1911.163 -246.105 Q 1917.343 -242.444 1927.492 -242.070 Q 1937.641 -241.696 1948.299 -248.105 Q 1958.958 -254.514 1964.566 -260.667 Q 1970.174 -266.819 1973.141 -271.078 Q 1976.108 -275.336 1977.458 -277.086 Q 1978.808 -278.835 1985.160 -288.690 Q 1991.513 -298.545 1995.875 -310.201 Q 2000.237 -321.857 2002.064 -336.716 Q 2003.891 -351.574 2000.108 -367.523 Q 1996.326 -383.471 1985.372 -395.713 Q 1979.272 -388.619 1977.038 -368.470 Q 1974.803 -348.321 1975.813 -326.215 Q 1976.823 -304.110 1980.198 -288.577 Q 1983.573 -273.045 1986.953 -264.964 Q 1990.333 -256.883 1993.724 -251.706 Q 1997.115 -246.529 1999.597 -245.143 Q 2002.078 -243.758 2006.674 -248.326 Q 2011.270 -252.893 2023.052 -285.777 "></path>
    <path id="STROKE_31d1e465-21dc-496f-927d-71532f33c056" opacity="1.000" fill="none" stroke="#000000" stroke-width="5.378" stroke-opacity="1.000" stroke-linecap="round" stroke-linejoin="round" d="M 2037.118 -289.969 Q 2043.841 -293.283 2041.544 -292.510 Q 2045.333 -292.187 2050.335 -315.971 Q 2046.542 -318.215 2037.967 -309.956 Q 2029.391 -301.696 2025.594 -291.091 Q 2021.798 -280.486 2021.351 -272.828 Q 2020.905 -265.170 2021.079 -262.419 Q 2021.254 -259.668 2023.389 -258.043 Q 2025.525 -256.417 2028.249 -255.929 Q 2030.974 -255.441 2036.610 -258.429 Q 2042.246 -261.416 2051.110 -269.114 Q 2059.973 -276.812 2065.128 -299.455 Q 2061.815 -299.312 2062.370 -274.999 Q 2069.046 -272.786 2078.177 -276.949 Q 2087.309 -281.111 2094.968 -285.626 Q 2102.628 -290.141 2110.518 -298.296 Q 2118.409 -306.451 2119.118 -328.083 Q 2114.210 -332.134 2106.357 -323.281 Q 2098.503 -314.429 2094.120 -307.433 Q 2089.737 -300.437 2087.799 -294.454 Q 2085.860 -288.471 2085.496 -285.083 Q 2085.132 -281.695 2089.031 -280.279 Q 2092.931 -278.863 2096.363 -279.082 Q 2099.796 -279.301 2102.488 -279.008 Q 2105.180 -278.715 2115.646 -280.626 Q 2126.111 -282.536 2132.950 -283.589 Q 2139.788 -284.641 2146.552 -283.913 Q 2145.769 -283.325 2147.158 -282.764 Q 2148.547 -282.204 2146.229 -276.201 Q 2143.911 -270.197 2134.992 -260.344 Q 2126.073 -250.491 2116.859 -241.067 Q 2107.644 -231.643 2096.413 -226.531 Q 2094.670 -229.415 2099.734 -238.776 Q 2104.798 -248.138 2116.642 -260.522 Q 2128.486 -272.907 2137.478 -279.883 Q 2146.470 -286.859 2159.330 -298.184 Q 2172.189 -309.510 2178.625 -321.053 Q 2170.967 -322.430 2159.306 -311.994 Q 2147.645 -301.558 2143.369 -285.459 Q 2146.792 -283.605 2166.249 -290.810 Q 2185.705 -298.015 2208.242 -299.794 Q 2219.516 -289.694 2158.799 -232.460 Q 2154.083 -234.700 2200.451 -278.535 "></path>
    <path id="STROKE_2e7b91b3-c82d-41b0-b429-aff189f15ecf" opacity="1.000" fill="none" stroke="#000000" stroke-width="5.378" stroke-opacity="1.000" stroke-linecap="round" stroke-linejoin="round" d="M 2237.858 -312.880 Q 2238.542 -312.923 2238.198 -313.604 Q 2237.855 -314.284 2241.151 -311.634 Q 2244.448 -308.984 2245.195 -307.966 Q 2245.943 -306.947 2247.625 -306.515 Q 2249.308 -306.083 2254.379 -307.146 Q 2259.451 -308.210 2263.224 -313.645 Q 2266.998 -319.081 2267.804 -323.369 Q 2268.610 -327.657 2269.247 -330.856 Q 2269.883 -334.056 2267.456 -337.383 Q 2265.029 -340.710 2260.001 -340.916 Q 2254.974 -341.121 2251.595 -340.915 Q 2248.216 -340.709 2245.211 -339.818 Q 2242.206 -338.928 2236.273 -331.325 Q 2230.341 -323.721 2226.984 -315.225 Q 2223.627 -306.728 2222.819 -298.599 Q 2222.011 -290.469 2222.121 -285.541 Q 2222.231 -280.613 2223.880 -277.280 Q 2225.529 -273.947 2232.065 -271.996 Q 2238.601 -270.044 2249.636 -274.521 Q 2260.672 -278.999 2301.579 -306.273 "></path>
  </g>
</svg>