<?xml version="1.0" encoding="UTF-8" standalone="yes"?>
<svg xmlns="http://www.w3.org/2000/svg" xmlns:xlink="http://www.w3.org/1999/xlink" width="81.429cm" height="31.036cm" version="1.1" viewBox="-2526.780 261.938 4231.744 1612.905">
  <!--
	Exported with Concepts: Smarter Sketching
	Version: 3531 on iOS 17.7
	https://concepts.app/
	-->
  <title>93AE30DC-B176-4AE8-A3F7-094212D45F4F</title>
  <desc>Drawing exported from Concepts: Smarter Sketching</desc>
  <defs></defs>
  <rect x="-2526.780" y="261.938" width="4231.744" height="1612.905" stroke="none" fill="white"></rect>
  <g id="Pen" opacity="1.000">
    <path id="STROKE_55662bb0-37e5-4dcf-b9b7-d49bb3846442" opacity="1.000" fill="none" stroke="#000000" stroke-width="5.378" stroke-opacity="1.000" stroke-linecap="round" stroke-linejoin="round" d="M -180.896 523.015 Q -180.896 524.078 -180.896 518.052 Q -180.645 518.530 -180.441 557.438 Q -180.473 557.475 -179.913 552.017 "></path>
    <path id="STROKE_dcc6f33d-6619-4097-a6c3-bc11613f75a8" opacity="1.000" fill="none" stroke="#000000" stroke-width="5.378" stroke-opacity="1.000" stroke-linecap="round" stroke-linejoin="round" d="M -192.884 521.501 Q -193.274 521.809 -194.901 520.988 Q -196.528 520.166 -197.964 519.074 Q -199.399 517.983 -199.603 516.837 Q -199.807 515.692 -199.527 515.540 Q -199.246 515.388 -198.432 514.614 Q -197.617 513.839 -193.785 511.906 Q -189.953 509.972 -185.631 508.524 Q -181.309 507.075 -177.522 506.753 Q -173.735 506.430 -170.958 506.222 Q -168.181 506.015 -164.802 506.562 Q -161.424 507.110 -157.646 508.836 Q -153.869 510.561 -150.697 513.446 Q -147.526 516.331 -145.861 518.300 Q -144.197 520.268 -143.413 522.194 Q -142.629 524.120 -142.641 525.252 Q -142.652 526.385 -142.464 527.120 Q -142.276 527.856 -144.273 530.695 Q -146.270 533.535 -149.424 535.481 Q -152.578 537.427 -155.349 538.341 Q -158.119 539.254 -161.450 539.646 Q -164.781 540.037 -167.303 538.968 Q -169.824 537.900 -172.352 534.405 Q -172.224 534.144 -172.097 533.947 "></path>
    <path id="STROKE_4f63f124-3cd9-4d87-b8d6-27b7154ab5e6" opacity="1.000" fill="none" stroke="#000000" stroke-width="5.378" stroke-opacity="1.000" stroke-linecap="round" stroke-linejoin="round" d="M -117.458 519.108 Q -117.298 519.351 -116.652 518.378 Q -116.007 517.405 -116.138 516.644 Q -116.268 515.883 -117.543 515.438 Q -118.818 514.992 -121.528 514.772 Q -124.237 514.552 -127.827 515.675 Q -131.417 516.797 -134.255 518.366 Q -137.093 519.935 -139.805 521.972 Q -142.516 524.009 -144.496 527.430 Q -146.475 530.851 -147.371 534.878 Q -148.267 538.904 -148.309 541.189 Q -148.351 543.473 -148.077 545.250 Q -147.804 547.028 -145.459 548.531 Q -143.114 550.033 -141.727 550.607 Q -140.341 551.181 -134.623 552.361 Q -128.905 553.541 -124.309 553.745 Q -119.712 553.950 -117.071 553.956 Q -114.430 553.962 -111.809 553.393 Q -109.187 552.824 -106.545 545.463 "></path>
    <path id="STROKE_e0d83893-0f56-4f0d-a2c1-c45597280ca4" opacity="1.000" fill="none" stroke="#000000" stroke-width="5.378" stroke-opacity="1.000" stroke-linecap="round" stroke-linejoin="round" d="M -73.167 530.765 Q -73.516 530.926 -72.840 528.154 Q -72.165 525.381 -72.101 524.071 Q -72.038 522.762 -72.607 520.977 Q -73.175 519.193 -76.217 518.092 Q -79.260 516.991 -82.884 516.880 Q -86.508 516.768 -88.769 516.956 Q -91.030 517.145 -94.336 518.355 Q -97.643 519.566 -100.104 520.779 Q -102.565 521.993 -104.518 524.411 Q -106.471 526.830 -107.464 529.872 Q -108.457 532.914 -108.625 535.219 Q -108.792 537.524 -108.530 539.838 Q -108.268 542.152 -106.525 544.246 Q -104.781 546.339 -102.228 547.922 Q -99.675 549.504 -93.647 550.115 Q -87.619 550.726 -83.839 550.751 Q -80.059 550.776 -76.850 550.010 Q -73.641 549.243 -71.220 547.771 Q -68.800 546.299 -66.588 543.534 Q -64.377 540.768 -63.768 536.090 Q -63.159 531.412 -63.491 527.631 Q -63.823 523.849 -64.825 521.477 Q -65.827 519.105 -66.791 517.680 Q -67.755 516.255 -71.939 515.466 Q -76.124 514.677 -83.898 516.792 "></path>
    <path id="STROKE_55e1d534-535a-4462-9bc1-d6c22520dbe8" opacity="1.000" fill="none" stroke="#000000" stroke-width="5.378" stroke-opacity="1.000" stroke-linecap="round" stroke-linejoin="round" d="M -264.922 679.912 Q -264.663 679.645 -263.704 678.864 Q -262.744 678.083 -261.802 676.682 Q -260.861 675.281 -260.168 673.862 Q -259.475 672.442 -259.863 671.206 Q -260.251 669.969 -262.529 669.101 Q -264.806 668.233 -268.213 668.023 Q -271.620 667.813 -273.737 667.999 Q -275.853 668.185 -278.894 670.150 Q -281.934 672.114 -284.737 674.816 Q -287.540 677.517 -289.484 681.204 Q -291.427 684.890 -292.436 688.497 Q -293.445 692.104 -293.705 695.339 Q -293.964 698.573 -293.958 700.417 Q -293.953 702.262 -293.407 704.798 Q -292.860 707.334 -290.812 709.606 Q -288.764 711.878 -286.199 713.377 Q -283.634 714.876 -280.103 715.396 Q -276.571 715.915 -273.830 715.942 Q -271.088 715.969 -268.303 714.145 Q -265.517 712.321 -262.208 708.570 "></path>
    <path id="STROKE_af593a2e-ebc9-45f2-927c-0d4c8e3095f5" opacity="1.000" fill="none" stroke="#000000" stroke-width="5.378" stroke-opacity="1.000" stroke-linecap="round" stroke-linejoin="round" d="M -243.278 702.882 Q -242.980 703.231 -241.376 702.605 Q -239.772 701.979 -239.070 700.144 Q -238.368 698.309 -238.382 697.400 Q -238.396 696.492 -238.258 695.714 Q -238.120 694.936 -238.851 693.849 Q -239.583 692.763 -242.112 692.409 Q -244.642 692.056 -246.755 692.155 Q -248.868 692.254 -250.953 693.733 Q -253.038 695.213 -254.312 697.753 Q -255.586 700.294 -255.853 703.055 Q -256.119 705.816 -255.964 707.925 Q -255.808 710.034 -254.493 712.165 Q -253.179 714.296 -251.905 715.511 Q -250.631 716.726 -248.414 717.187 Q -246.197 717.647 -244.283 717.172 Q -242.369 716.696 -240.848 714.840 Q -239.327 712.984 -238.239 711.177 Q -237.151 709.371 -237.056 702.456 Q -237.184 702.386 -237.576 702.551 "></path>
    <path id="STROKE_2ceb0929-4447-4749-a641-71bbaaa3fa85" opacity="1.000" fill="none" stroke="#000000" stroke-width="5.378" stroke-opacity="1.000" stroke-linecap="round" stroke-linejoin="round" d="M -227.719 704.600 Q -227.892 704.463 -227.926 704.486 Q -227.961 704.508 -228.220 704.074 Q -228.479 703.639 -228.756 703.075 Q -229.033 702.512 -229.005 702.528 Q -228.977 702.543 -229.116 702.253 Q -229.254 701.963 -229.705 700.095 Q -229.569 700.226 -229.341 716.524 Q -229.321 716.636 -229.914 711.929 Q -230.508 707.222 -230.687 704.260 Q -230.866 701.298 -230.118 698.924 Q -229.369 696.550 -227.905 695.240 Q -226.441 693.929 -224.537 693.622 Q -222.633 693.314 -220.664 694.146 Q -218.696 694.977 -216.868 697.569 Q -215.040 700.161 -214.779 704.692 Q -214.518 709.222 -214.146 716.384 "></path>
    <path id="STROKE_bf83df35-7730-4a2c-95e7-f0c87ee88e4c" opacity="1.000" fill="none" stroke="#000000" stroke-width="5.378" stroke-opacity="1.000" stroke-linecap="round" stroke-linejoin="round" d="M -189.842 697.321 Q -189.809 697.156 -189.736 695.708 Q -189.663 694.261 -190.103 693.238 Q -190.543 692.214 -191.409 692.038 Q -192.275 691.861 -193.870 691.686 Q -195.465 691.511 -197.915 692.767 Q -200.364 694.024 -202.362 696.026 Q -204.359 698.029 -205.212 700.847 Q -206.065 703.664 -206.114 705.749 Q -206.163 707.833 -205.340 709.568 Q -204.516 711.302 -203.047 712.601 Q -201.578 713.900 -198.669 714.351 Q -195.759 714.803 -193.568 714.453 Q -191.377 714.104 -188.411 712.958 Q -185.445 711.811 -182.226 710.034 "></path>
    <path id="STROKE_4b7bff19-63be-4aed-a3fb-26cee24632d9" opacity="1.000" fill="none" stroke="#000000" stroke-width="5.378" stroke-opacity="1.000" stroke-linecap="round" stroke-linejoin="round" d="M -127.916 695.870 Q -127.921 694.492 -127.952 694.776 Q -128.100 693.609 -128.089 693.878 Q -128.102 693.802 -128.262 693.414 Q -128.623 693.338 -127.451 698.343 Q -126.280 703.347 -125.068 706.085 Q -123.856 708.823 -122.673 710.854 Q -121.491 712.884 -120.281 713.447 Q -119.072 714.010 -118.388 713.935 Q -117.705 713.860 -117.157 712.933 Q -116.610 712.007 -116.474 711.565 Q -116.339 711.124 -116.059 708.879 Q -115.780 706.634 -115.836 695.539 Q -115.596 696.517 -114.616 698.313 "></path>
    <path id="STROKE_3dde89e6-fdbe-4ab5-bd83-ea4e276d25fe" opacity="1.000" fill="none" stroke="#000000" stroke-width="5.378" stroke-opacity="1.000" stroke-linecap="round" stroke-linejoin="round" d="M -94.229 699.700 Q -94.432 699.801 -94.257 697.640 Q -94.082 695.479 -94.470 693.447 Q -94.859 691.416 -96.184 691.168 Q -97.509 690.920 -99.404 690.883 Q -101.299 690.845 -102.430 691.401 Q -103.561 691.958 -103.915 692.278 Q -104.269 692.598 -104.692 692.805 Q -105.116 693.012 -105.847 694.219 Q -106.579 695.427 -106.681 696.480 Q -106.783 697.534 -106.290 698.529 Q -105.798 699.525 -102.280 701.371 Q -98.763 703.217 -95.847 704.375 Q -92.930 705.533 -91.519 706.554 Q -90.108 707.576 -89.487 708.120 Q -88.866 708.664 -88.326 709.769 Q -87.787 710.874 -88.176 711.692 Q -88.566 712.510 -89.828 713.074 Q -91.091 713.639 -92.094 713.970 Q -93.098 714.302 -96.351 714.724 Q -99.605 715.146 -101.707 715.133 Q -103.810 715.121 -105.842 714.531 Q -107.875 713.941 -109.441 710.034 "></path>
    <path id="STROKE_7c204f95-70cc-4e19-911e-e1d40c90e8b9" opacity="1.000" fill="none" stroke="#000000" stroke-width="5.378" stroke-opacity="1.000" stroke-linecap="round" stroke-linejoin="round" d="M -30.845 681.172 Q -31.024 681.999 -30.233 679.603 Q -29.442 677.207 -29.427 675.891 Q -29.412 674.576 -29.632 673.437 Q -29.851 672.298 -32.200 671.572 Q -34.550 670.846 -37.593 671.260 Q -40.636 671.673 -42.909 672.822 Q -45.182 673.970 -46.145 675.350 Q -47.108 676.730 -47.104 678.540 Q -47.100 680.350 -44.913 682.277 Q -42.726 684.204 -37.749 686.784 Q -32.771 689.364 -29.934 690.917 Q -27.097 692.471 -24.376 694.853 Q -21.654 697.235 -20.470 699.367 Q -19.286 701.499 -19.085 703.321 Q -18.885 705.143 -19.524 706.959 Q -20.164 708.775 -22.668 710.000 Q -25.173 711.226 -29.847 711.738 Q -34.521 712.250 -36.627 712.222 Q -38.733 712.195 -40.339 711.950 Q -41.945 711.705 -42.903 711.346 Q -43.862 710.987 -45.046 710.242 Q -46.231 709.496 -46.731 708.507 Q -47.231 707.518 -47.271 707.192 Q -47.311 706.865 -46.660 705.510 Q -46.009 704.155 -42.578 702.220 "></path>
    <path id="STROKE_c36bb585-c0b8-4439-8918-b2664e0231b1" opacity="1.000" fill="none" stroke="#000000" stroke-width="5.378" stroke-opacity="1.000" stroke-linecap="round" stroke-linejoin="round" d="M -11.715 697.652 Q -11.751 697.652 -12.116 697.556 Q -12.116 697.486 -12.116 697.321 Q -11.767 697.410 -8.569 697.273 Q -5.370 697.135 -3.973 697.193 Q -2.575 697.251 -0.889 696.479 Q 0.797 695.707 1.216 695.158 Q 1.636 694.609 2.048 693.826 Q 2.461 693.043 1.807 691.911 Q 1.154 690.778 0.590 690.418 Q 0.026 690.058 -2.747 689.490 Q -5.521 688.923 -7.853 689.117 Q -10.185 689.310 -12.367 690.844 Q -14.549 692.377 -16.050 695.071 Q -17.552 697.765 -17.846 700.276 Q -18.139 702.787 -17.774 704.498 Q -17.408 706.208 -16.297 707.182 Q -15.186 708.156 -11.940 708.572 Q -8.695 708.988 -5.191 708.509 Q -1.687 708.031 2.587 705.656 "></path>
    <path id="STROKE_f6888892-473b-4168-a8c5-0f3e88504d8b" opacity="1.000" fill="none" stroke="#000000" stroke-width="5.378" stroke-opacity="1.000" stroke-linecap="round" stroke-linejoin="round" d="M 20.733 693.019 Q 20.393 691.105 20.533 691.658 Q 20.519 691.218 20.145 689.863 Q 19.770 688.508 17.787 687.637 Q 15.804 686.766 14.054 686.761 Q 12.304 686.757 10.466 687.548 Q 8.627 688.339 6.695 690.383 Q 4.763 692.427 4.069 694.201 Q 3.376 695.975 3.161 698.405 Q 2.947 700.836 3.155 702.408 Q 3.362 703.980 3.915 704.816 Q 4.468 705.652 4.816 706.328 Q 5.164 707.003 6.376 707.575 Q 7.588 708.148 9.328 708.334 Q 11.068 708.521 13.296 707.491 Q 15.523 706.461 16.965 702.622 Q 18.408 698.783 17.946 690.735 L 17.882 690.703 Q 17.451 690.577 16.626 697.631 Q 15.800 704.686 16.070 710.256 Q 16.339 715.827 16.814 718.769 Q 17.288 721.711 17.933 723.269 Q 18.578 724.828 19.804 725.788 "></path>
    <path id="STROKE_bbcf8c12-a03d-4dfe-aef0-7fe04eac8369" opacity="1.000" fill="none" stroke="#000000" stroke-width="5.378" stroke-opacity="1.000" stroke-linecap="round" stroke-linejoin="round" d="M -873.441 845.706 Q -872.682 845.785 -871.683 842.860 Q -870.684 839.934 -870.419 838.380 Q -870.154 836.825 -870.314 836.001 Q -870.474 835.176 -871.054 834.444 Q -871.633 833.711 -873.038 833.340 Q -874.442 832.970 -876.135 832.763 Q -877.829 832.556 -880.393 833.892 Q -882.958 835.228 -885.147 837.599 Q -887.337 839.969 -888.887 842.546 Q -890.436 845.123 -891.077 848.853 Q -891.717 852.584 -891.107 855.987 Q -890.497 859.391 -888.943 862.251 Q -887.388 865.112 -885.392 867.233 Q -883.395 869.353 -880.498 870.297 Q -877.602 871.240 -874.622 871.447 Q -871.643 871.654 -869.533 871.086 Q -867.424 870.519 -866.261 869.760 Q -865.098 869.002 -863.585 867.022 "></path>
    <path id="STROKE_748cafe6-e4b4-4c4c-9bab-989bc9d24c88" opacity="1.000" fill="none" stroke="#000000" stroke-width="5.378" stroke-opacity="1.000" stroke-linecap="round" stroke-linejoin="round" d="M -850.012 851.725 Q -850.330 851.243 -852.233 850.352 Q -854.136 849.462 -856.170 849.856 Q -858.204 850.250 -859.984 851.882 Q -861.764 853.515 -862.828 855.853 Q -863.891 858.191 -864.121 860.440 Q -864.350 862.689 -863.744 864.380 Q -863.137 866.072 -861.772 867.541 Q -860.407 869.009 -859.407 869.269 Q -858.407 869.530 -856.810 869.674 Q -855.213 869.818 -853.856 868.867 Q -852.499 867.915 -851.240 866.966 Q -849.982 866.017 -848.948 862.748 Q -847.914 859.479 -849.611 854.512 Q -849.848 854.544 -850.012 854.576 "></path>
    <path id="STROKE_7cd53a85-24f0-4d41-bef2-366ef47dece0" opacity="1.000" fill="none" stroke="#000000" stroke-width="5.378" stroke-opacity="1.000" stroke-linecap="round" stroke-linejoin="round" d="M -840.738 859.081 Q -841.099 858.993 -841.667 855.441 Q -841.455 855.204 -842.068 866.563 Q -842.141 866.962 -842.486 863.753 Q -842.832 860.543 -842.160 858.018 Q -841.488 855.492 -840.810 854.352 Q -840.132 853.213 -839.041 852.023 Q -837.950 850.833 -836.393 850.545 Q -834.836 850.256 -832.972 851.171 Q -831.107 852.085 -829.657 854.318 Q -828.207 856.551 -827.680 860.626 Q -827.153 864.701 -828.486 869.732 Q -828.550 869.732 -828.878 869.669 "></path>
    <path id="STROKE_52ea8859-3057-4409-818e-cb7c2ae80ef3" opacity="1.000" fill="none" stroke="#000000" stroke-width="5.378" stroke-opacity="1.000" stroke-linecap="round" stroke-linejoin="round" d="M -811.078 855.301 Q -810.502 855.658 -810.103 851.929 Q -810.195 851.824 -812.185 851.556 Q -814.174 851.288 -816.240 852.243 Q -818.306 853.198 -819.786 855.024 Q -821.265 856.849 -821.715 857.930 Q -822.165 859.011 -822.428 861.076 Q -822.691 863.141 -821.792 865.238 Q -820.893 867.334 -817.570 868.135 Q -814.248 868.936 -810.844 868.898 Q -807.441 868.861 -800.219 863.573 "></path>
    <path id="STROKE_c4588f8d-d471-4dfb-a7c1-d2e1597cdda7" opacity="1.000" fill="none" stroke="#000000" stroke-width="5.378" stroke-opacity="1.000" stroke-linecap="round" stroke-linejoin="round" d="M -774.257 856.497 Q -774.240 856.515 -775.551 856.465 Q -775.508 854.614 -759.026 855.505 "></path>
    <path id="STROKE_ac38a372-2c1d-4eea-94eb-0e911d8687ab" opacity="1.000" fill="none" stroke="#000000" stroke-width="5.378" stroke-opacity="1.000" stroke-linecap="round" stroke-linejoin="round" d="M -765.585 857.554 Q -766.830 858.026 -766.742 857.948 Q -767.266 857.990 -770.085 859.208 Q -770.085 859.240 -770.085 859.271 Q -770.987 860.005 -754.326 857.884 "></path>
    <path id="STROKE_a801f798-492e-46f3-8387-ce339b204457" opacity="1.000" fill="none" stroke="#000000" stroke-width="5.378" stroke-opacity="1.000" stroke-linecap="round" stroke-linejoin="round" d="M -752.267 849.549 Q -752.297 850.012 -752.795 847.895 Q -752.309 847.658 -750.307 848.651 Q -748.305 849.645 -747.291 851.493 Q -746.277 853.341 -746.418 855.049 Q -746.559 856.757 -748.816 858.515 Q -751.074 860.274 -752.965 861.239 Q -754.855 862.204 -757.441 861.791 "></path>
    <path id="STROKE_55e76ced-e2e8-4a12-9315-19bb8ebcef58" opacity="1.000" fill="none" stroke="#000000" stroke-width="5.378" stroke-opacity="1.000" stroke-linecap="round" stroke-linejoin="round" d="M -713.989 857.757 Q -714.219 858.578 -713.570 849.676 L -713.533 849.676 Q -713.401 851.412 -713.433 851.401 Q -714.226 852.757 -710.746 873.245 Q -710.420 872.922 -711.062 868.967 Q -711.704 865.013 -711.865 863.054 Q -712.025 861.095 -711.961 859.162 Q -711.896 857.228 -711.341 855.603 Q -710.785 853.978 -709.815 853.214 Q -708.844 852.450 -708.082 852.210 Q -707.320 851.970 -706.213 851.974 Q -705.106 851.979 -704.495 852.381 Q -703.885 852.783 -703.047 853.522 Q -702.208 854.262 -700.957 855.744 Q -699.706 857.225 -699.113 863.090 Q -698.521 868.955 -697.245 875.166 Q -697.109 875.166 -696.316 873.308 "></path>
    <path id="STROKE_1b360ea9-805d-41a9-bbed-8e5665ef6c1b" opacity="1.000" fill="none" stroke="#000000" stroke-width="5.378" stroke-opacity="1.000" stroke-linecap="round" stroke-linejoin="round" d="M -698.302 831.606 Q -698.274 831.694 -698.831 829.557 Q -698.831 831.635 -698.831 831.408 Q -698.793 832.872 -698.518 835.082 Q -698.244 837.292 -697.466 841.960 Q -696.688 846.627 -695.810 850.452 Q -694.933 854.277 -691.415 873.906 Q -691.199 874.486 -691.404 868.973 Q -691.609 863.459 -691.706 860.518 Q -691.804 857.577 -691.505 856.161 Q -691.206 854.744 -690.692 853.850 Q -690.178 852.957 -688.828 852.556 Q -687.477 852.156 -685.936 853.891 Q -684.395 855.626 -681.996 858.419 Q -679.598 861.213 -678.093 863.386 Q -676.589 865.558 -676.018 867.504 Q -675.447 869.450 -676.059 871.372 Q -676.670 873.295 -679.901 873.492 Q -683.131 873.690 -685.180 873.645 Q -687.229 873.599 -689.110 872.910 Q -690.991 872.220 -691.935 871.395 Q -692.879 870.571 -693.201 868.218 "></path>
    <path id="STROKE_6e012590-c382-4edd-9122-6587c9402a14" opacity="1.000" fill="none" stroke="#000000" stroke-width="5.378" stroke-opacity="1.000" stroke-linecap="round" stroke-linejoin="round" d="M -632.021 859.679 Q -631.714 859.710 -631.074 857.873 Q -630.433 856.035 -630.492 854.722 Q -630.551 853.409 -630.815 852.751 Q -631.078 852.093 -632.941 851.838 Q -634.805 851.583 -636.748 851.821 Q -638.692 852.058 -641.243 854.485 Q -643.795 856.911 -644.441 859.577 Q -645.087 862.243 -645.140 863.756 Q -645.193 865.269 -644.782 867.130 Q -644.371 868.991 -642.791 869.905 Q -641.212 870.820 -640.022 870.891 Q -638.833 870.963 -637.537 870.918 Q -636.241 870.873 -635.229 870.457 Q -634.218 870.041 -632.640 868.550 Q -631.062 867.058 -630.183 864.299 Q -629.303 861.539 -629.125 857.058 Q -628.948 852.576 -630.394 845.232 Q -631.840 837.888 -632.623 828.819 Q -632.230 828.382 -630.710 839.108 Q -629.189 849.834 -628.770 855.545 Q -628.351 861.257 -627.727 864.168 Q -627.102 867.079 -626.567 868.580 Q -626.032 870.080 -624.206 870.928 "></path>
    <path id="STROKE_1adca6d5-5fa3-4ab7-b2b5-b39b431f0110" opacity="1.000" fill="none" stroke="#000000" stroke-width="5.378" stroke-opacity="1.000" stroke-linecap="round" stroke-linejoin="round" d="M -619.305 858.610 Q -619.341 858.743 -619.341 859.310 Q -618.121 859.571 -616.032 859.612 Q -613.942 859.654 -612.086 858.950 Q -610.230 858.247 -609.129 857.102 Q -608.029 855.957 -607.695 854.640 Q -607.362 853.323 -607.501 852.184 Q -607.641 851.044 -608.604 850.389 Q -609.567 849.734 -610.094 849.526 Q -610.622 849.317 -611.791 849.034 Q -612.960 848.751 -613.754 848.672 Q -614.549 848.593 -616.528 849.342 Q -618.506 850.091 -620.282 852.968 Q -622.057 855.845 -622.377 858.755 Q -622.696 861.664 -622.725 863.205 Q -622.755 864.745 -622.343 865.923 Q -621.931 867.101 -621.021 868.211 Q -620.111 869.322 -618.669 870.319 Q -617.227 871.317 -614.002 871.576 Q -610.777 871.835 -608.325 871.599 Q -605.872 871.362 -603.090 869.007 "></path>
    <path id="STROKE_95e84ccf-92e6-47a7-bb13-a7f81c3f9a38" opacity="1.000" fill="none" stroke="#000000" stroke-width="5.378" stroke-opacity="1.000" stroke-linecap="round" stroke-linejoin="round" d="M -556.540 856.166 Q -555.997 855.932 -555.757 854.425 Q -555.518 852.918 -555.722 851.852 Q -555.926 850.786 -557.932 850.126 Q -559.937 849.467 -562.607 851.266 Q -565.276 853.065 -566.858 854.913 Q -568.441 856.761 -569.549 858.782 Q -570.657 860.803 -571.134 863.512 Q -571.611 866.221 -571.165 868.544 Q -570.718 870.867 -569.402 872.623 Q -568.085 874.379 -565.461 875.294 Q -562.836 876.210 -558.519 875.638 Q -554.201 875.065 -551.324 874.013 Q -548.448 872.961 -546.580 871.190 Q -544.713 869.419 -543.295 865.825 "></path>
    <path id="STROKE_7a1a4de7-b963-49d9-8a6d-64b6dd810e67" opacity="1.000" fill="none" stroke="#000000" stroke-width="5.378" stroke-opacity="1.000" stroke-linecap="round" stroke-linejoin="round" d="M -534.805 854.512 Q -535.519 854.104 -536.631 852.984 Q -537.743 851.865 -539.384 851.823 Q -541.024 851.780 -542.603 852.126 Q -544.181 852.472 -546.138 854.727 Q -548.095 856.982 -548.941 858.483 Q -549.786 859.984 -550.228 862.572 Q -550.669 865.160 -550.497 867.553 Q -550.326 869.947 -549.530 871.376 Q -548.735 872.805 -546.859 873.923 Q -544.983 875.041 -543.582 875.158 Q -542.181 875.275 -540.198 875.409 Q -538.215 875.542 -536.807 874.975 Q -535.399 874.409 -534.218 873.588 Q -533.037 872.768 -532.212 871.126 Q -531.387 869.485 -531.119 866.733 Q -530.851 863.981 -531.267 861.819 Q -531.682 859.656 -532.690 857.858 Q -533.699 856.059 -535.807 857.159 "></path>
    <path id="STROKE_0ac4df24-8f81-4c9b-a9c8-67a2dc2c7de6" opacity="1.000" fill="none" stroke="#000000" stroke-width="5.378" stroke-opacity="1.000" stroke-linecap="round" stroke-linejoin="round" d="M -523.418 861.130 Q -523.441 861.487 -524.420 860.169 Q -523.571 859.860 -521.193 859.644 Q -518.816 859.428 -517.125 859.069 Q -515.434 858.710 -514.196 857.934 Q -512.958 857.157 -512.667 855.845 Q -512.378 854.533 -514.112 853.273 Q -515.847 852.012 -518.586 851.417 Q -521.325 850.822 -523.608 851.159 Q -525.892 851.495 -527.429 853.147 Q -528.965 854.800 -529.497 857.238 Q -530.028 859.676 -529.336 862.285 Q -528.645 864.895 -526.839 866.835 Q -525.033 868.776 -523.577 869.634 Q -522.121 870.492 -519.434 870.817 Q -516.747 871.141 -514.527 870.933 Q -512.307 870.725 -510.870 867.493 Q -509.433 864.262 -509.417 853.049 Q -509.557 853.235 -509.915 856.287 Q -510.272 859.340 -509.771 862.099 Q -509.269 864.859 -508.561 866.317 Q -507.852 867.775 -507.169 868.646 Q -506.487 869.516 -505.923 869.928 Q -505.359 870.340 -503.914 870.809 Q -502.468 871.278 -501.026 869.800 Q -499.584 868.322 -498.752 865.682 Q -497.921 863.042 -498.094 853.488 L -498.157 853.456 Q -498.609 853.397 -498.431 856.036 Q -498.252 858.676 -498.186 860.063 Q -498.120 861.451 -497.635 862.634 Q -497.150 863.818 -495.706 865.224 Q -494.262 866.630 -491.953 866.692 Q -489.644 866.754 -487.941 866.451 Q -486.238 866.149 -485.614 864.705 "></path>
    <path id="STROKE_7705298d-1b9d-4eb9-a52e-2be38ce50ae1" opacity="1.000" fill="none" stroke="#000000" stroke-width="5.378" stroke-opacity="1.000" stroke-linecap="round" stroke-linejoin="round" d="M -485.541 855.632 Q -486.627 855.632 -486.506 855.632 Q -488.079 855.426 -487.599 855.505 Q -487.700 855.505 -487.800 855.505 Q -488.135 855.996 -488.084 857.689 Q -488.032 859.381 -487.750 860.568 Q -487.467 861.755 -486.907 863.124 Q -486.348 864.494 -485.217 866.617 Q -484.086 868.741 -482.826 871.526 Q -482.855 870.263 -483.819 867.978 Q -484.784 865.693 -485.566 862.283 Q -486.348 858.873 -486.487 856.777 Q -486.626 854.682 -486.541 853.024 Q -486.457 851.367 -484.672 850.280 Q -482.887 849.193 -481.478 849.203 Q -480.070 849.212 -479.075 849.501 Q -478.081 849.790 -477.501 850.373 Q -476.922 850.957 -476.607 851.479 Q -476.292 852.002 -476.221 852.298 Q -476.151 852.593 -476.124 852.772 Q -476.097 852.951 -475.885 854.576 "></path>
    <path id="STROKE_87621643-d713-4d3c-9ea0-0a9bb19f6fd4" opacity="1.000" fill="none" stroke="#000000" stroke-width="5.378" stroke-opacity="1.000" stroke-linecap="round" stroke-linejoin="round" d="M -451.508 862.720 Q -451.856 862.938 -452.281 863.142 Q -452.706 863.345 -452.712 863.352 Q -452.719 863.359 -452.746 863.367 Q -452.774 863.375 -452.838 863.382 L -452.838 863.414 Q -453.009 863.499 -449.004 863.496 Q -444.999 863.494 -442.247 862.538 Q -439.495 861.581 -438.259 860.867 Q -437.023 860.153 -436.624 859.869 Q -436.226 859.586 -436.152 859.209 Q -436.079 858.833 -435.949 857.490 "></path>
    <path id="STROKE_1d3609a3-22e8-4cd9-90c9-fb714fee9abe" opacity="1.000" fill="none" stroke="#000000" stroke-width="5.378" stroke-opacity="1.000" stroke-linecap="round" stroke-linejoin="round" d="M -444.293 850.274 Q -444.895 850.576 -445.463 853.164 Q -446.032 855.752 -445.057 859.275 Q -444.083 862.797 -443.318 864.652 Q -442.554 866.506 -441.733 868.398 Q -440.913 870.291 -434.291 869.999 "></path>
    <path id="STROKE_1f9a4887-5d4d-460d-9a17-2a51819b42bd" opacity="1.000" fill="none" stroke="#000000" stroke-width="5.378" stroke-opacity="1.000" stroke-linecap="round" stroke-linejoin="round" d="M -404.958 862.058 Q -405.548 861.533 -406.489 857.490 Q -407.266 857.482 -399.830 870.788 L -399.802 870.788 Q -399.689 870.839 -401.813 867.606 Q -403.937 864.373 -404.725 861.065 Q -405.513 857.756 -405.500 855.797 Q -405.488 853.838 -404.211 851.776 Q -402.935 849.714 -400.323 849.103 Q -397.712 848.491 -395.756 848.552 Q -393.800 848.613 -392.102 849.485 Q -390.404 850.357 -389.803 851.786 Q -389.202 853.215 -389.135 855.185 Q -389.068 857.155 -390.055 859.742 "></path>
    <path id="STROKE_4635c221-b9a2-4619-b3d1-037156ac3f04" opacity="1.000" fill="none" stroke="#000000" stroke-width="5.378" stroke-opacity="1.000" stroke-linecap="round" stroke-linejoin="round" d="M -372.182 855.441 Q -372.159 855.471 -371.625 854.893 Q -371.091 854.314 -371.241 854.335 Q -371.392 854.355 -371.259 854.369 Q -371.127 854.383 -370.874 853.563 Q -370.621 852.742 -371.036 851.587 Q -371.451 850.431 -373.305 850.300 Q -375.159 850.169 -376.907 850.891 Q -378.656 851.614 -380.130 854.259 Q -381.604 856.905 -381.971 859.695 Q -382.338 862.486 -382.191 864.592 Q -382.045 866.698 -381.150 868.237 Q -380.256 869.776 -378.847 870.205 Q -377.439 870.634 -374.476 870.310 Q -371.514 869.985 -370.656 865.792 Q -369.797 861.598 -370.961 855.772 Q -371.080 855.988 -371.303 858.906 Q -371.526 861.824 -371.192 864.933 Q -370.858 868.042 -369.952 870.078 Q -369.046 872.115 -367.204 873.737 Q -365.362 875.359 -360.067 874.899 "></path>
    <path id="STROKE_aff9c24e-3f89-49b7-8c14-b33f1af41c26" opacity="1.000" fill="none" stroke="#000000" stroke-width="5.378" stroke-opacity="1.000" stroke-linecap="round" stroke-linejoin="round" d="M -357.279 858.279 Q -357.043 858.225 -359.238 857.954 Q -359.716 858.314 -359.950 862.287 Q -360.184 866.259 -353.107 890.450 Q -353.026 889.503 -355.514 884.174 Q -358.002 878.846 -359.588 875.238 Q -361.174 871.631 -362.272 867.716 Q -363.371 863.801 -363.751 861.501 Q -364.131 859.201 -364.337 856.400 Q -364.544 853.598 -364.251 851.660 Q -363.959 849.721 -362.619 848.376 Q -361.279 847.032 -359.051 846.389 Q -356.823 845.746 -354.493 846.217 Q -352.163 846.688 -350.531 847.617 Q -348.900 848.546 -347.163 850.449 Q -345.426 852.352 -344.565 855.496 Q -343.704 858.640 -343.556 860.855 Q -343.408 863.071 -343.860 865.447 Q -344.311 867.822 -346.142 868.890 Q -347.973 869.958 -350.238 870.220 Q -352.502 870.481 -353.941 870.030 Q -355.381 869.579 -355.993 868.946 Q -356.605 868.312 -357.531 866.873 Q -358.458 865.434 -358.482 862.186 "></path>
    <path id="STROKE_948a29e0-8a1d-4f2b-b3a6-f306225869e7" opacity="1.000" fill="none" stroke="#000000" stroke-width="5.378" stroke-opacity="1.000" stroke-linecap="round" stroke-linejoin="round" d="M -337.420 852.056 Q -337.420 852.024 -337.420 851.598 Q -336.947 851.325 -337.053 854.794 Q -337.159 858.263 -336.916 860.301 Q -336.672 862.340 -336.100 863.842 Q -335.528 865.344 -335.050 866.229 Q -334.573 867.114 -330.989 867.416 "></path>
    <path id="STROKE_278543af-5e6d-40fb-8c65-a2b228118248" opacity="1.000" fill="none" stroke="#000000" stroke-width="5.378" stroke-opacity="1.000" stroke-linecap="round" stroke-linejoin="round" d="M -310.802 850.796 Q -310.949 850.647 -311.150 850.234 Q -311.352 849.821 -311.378 849.709 Q -311.405 849.597 -311.288 849.824 Q -311.171 850.050 -311.410 849.163 Q -311.650 848.276 -312.233 847.336 Q -312.816 846.395 -314.044 846.316 Q -315.272 846.236 -316.209 846.318 Q -317.145 846.399 -318.133 847.012 Q -319.122 847.625 -320.092 848.268 Q -321.061 848.910 -322.419 850.193 Q -323.776 851.477 -325.068 853.327 Q -326.360 855.178 -326.750 857.371 Q -327.141 859.564 -327.123 861.388 Q -327.105 863.212 -326.140 864.353 Q -325.175 865.495 -323.938 865.848 Q -322.701 866.202 -320.854 866.295 Q -319.006 866.388 -317.098 865.739 Q -315.190 865.089 -313.562 862.421 Q -311.933 859.753 -310.635 856.537 Q -309.336 853.321 -310.474 827.463 Q -311.217 827.174 -311.888 831.970 Q -312.559 836.765 -312.472 842.321 Q -312.386 847.876 -312.254 850.574 Q -312.123 853.271 -311.094 857.097 Q -310.064 860.924 -309.157 863.128 Q -308.249 865.332 -306.544 867.399 Q -304.838 869.466 -299.543 869.338 "></path>
    <path id="STROKE_c249cb60-7151-4e72-b5ae-91ad6fba6500" opacity="1.000" fill="none" stroke="#000000" stroke-width="5.378" stroke-opacity="1.000" stroke-linecap="round" stroke-linejoin="round" d="M -294.715 854.181 Q -295.237 854.551 -295.772 855.301 Q -295.275 855.120 -293.115 855.299 Q -290.955 855.477 -288.752 854.938 Q -286.550 854.399 -285.638 854.103 Q -284.727 853.807 -284.149 853.530 Q -283.572 853.253 -282.957 852.385 Q -282.342 851.516 -282.217 850.298 Q -282.092 849.080 -283.002 848.068 Q -283.911 847.056 -284.979 846.465 Q -286.046 845.873 -287.423 845.621 Q -288.800 845.370 -291.002 847.088 Q -293.204 848.807 -295.213 851.336 Q -297.222 853.866 -298.550 856.426 Q -299.879 858.987 -300.313 860.916 Q -300.747 862.845 -300.535 864.284 Q -300.323 865.723 -299.118 866.586 Q -297.913 867.449 -296.775 868.065 Q -295.637 868.680 -288.284 868.345 "></path>
    <path id="STROKE_1dc5adfc-013f-4d34-9bac-eaecb9146d84" opacity="1.000" fill="none" stroke="#000000" stroke-width="5.378" stroke-opacity="1.000" stroke-linecap="round" stroke-linejoin="round" d="M -252.201 737.718 Q -252.361 736.104 -251.631 732.926 Q -251.196 733.782 -260.740 744.275 Q -270.284 754.768 -278.568 763.548 Q -286.852 772.329 -290.761 776.325 Q -294.671 780.321 -297.291 782.808 Q -299.912 785.296 -315.057 802.164 Q -315.342 802.009 -313.189 799.862 Q -311.036 797.715 -309.557 794.949 Q -308.078 792.183 -307.838 788.633 Q -307.598 785.083 -307.681 782.728 Q -307.765 780.373 -307.761 779.446 Q -307.757 778.518 -307.797 778.411 Q -307.836 778.303 -308.488 777.804 Q -309.140 777.305 -309.026 777.520 Q -308.913 777.735 -309.217 777.609 Q -309.521 777.483 -313.018 782.596 Q -316.515 787.710 -318.614 791.059 Q -320.712 794.407 -321.756 797.809 Q -322.799 801.211 -322.801 803.269 Q -322.802 805.326 -321.909 806.868 Q -321.017 808.409 -318.272 808.860 Q -315.526 809.311 -297.919 801.875 "></path>
    <path id="STROKE_c454db3c-3f5a-4656-97f4-a2f4593a3b62" opacity="1.000" fill="none" stroke="#000000" stroke-width="5.378" stroke-opacity="1.000" stroke-linecap="round" stroke-linejoin="round" d="M -1.553 734.716 Q -1.522 734.412 -1.286 732.637 Q -1.050 730.862 0.705 730.276 Q 2.461 729.690 4.083 729.670 Q 5.704 729.649 8.037 729.381 Q 10.369 729.113 20.103 734.259 Q 29.837 739.404 37.702 743.646 Q 45.566 747.888 54.254 752.415 Q 62.941 756.943 67.869 759.556 Q 72.798 762.170 91.218 770.630 Q 109.639 779.091 122.684 784.586 Q 135.729 790.082 146.270 793.937 Q 156.810 797.793 168.715 801.779 Q 180.619 805.764 186.839 807.989 Q 193.060 810.214 196.446 811.313 Q 199.831 812.412 200.944 814.677 "></path>
    <path id="STROKE_aa8d431e-2c0a-42b1-8bfd-3d81e8490d58" opacity="1.000" fill="none" stroke="#000000" stroke-width="5.378" stroke-opacity="1.000" stroke-linecap="round" stroke-linejoin="round" d="M 191.805 796.414 Q 191.766 796.414 191.727 796.414 Q 192.271 795.812 196.511 797.977 Q 200.752 800.142 205.667 803.156 Q 210.582 806.170 213.345 808.032 Q 216.109 809.895 217.369 811.790 Q 218.630 813.686 218.827 814.515 Q 219.023 815.344 218.998 816.120 Q 218.973 816.897 218.989 818.463 Q 219.005 820.029 215.323 821.804 Q 211.641 823.579 207.638 824.559 Q 203.635 825.539 196.698 826.340 "></path>
    <path id="STROKE_a0e2e5bf-1a02-4ad4-acae-34e250bb54a0" opacity="1.000" fill="none" stroke="#000000" stroke-width="5.378" stroke-opacity="1.000" stroke-linecap="round" stroke-linejoin="round" d="M 273.663 848.256 Q 273.634 849.977 273.482 839.215 Q 274.680 841.054 274.336 868.518 Q 273.658 868.613 272.546 862.242 Q 271.433 855.872 271.112 851.148 Q 270.792 846.424 272.252 842.400 Q 273.712 838.376 275.439 836.320 Q 277.165 834.265 279.975 832.718 Q 282.786 831.172 284.653 832.849 Q 286.519 834.526 287.595 836.663 Q 288.671 838.800 289.999 844.889 Q 291.326 850.978 291.370 868.382 Q 290.920 868.335 290.398 861.252 Q 289.876 854.168 289.941 849.733 Q 290.006 845.298 290.944 841.048 Q 291.882 836.799 293.237 834.105 Q 294.592 831.411 295.790 830.467 Q 296.988 829.522 298.653 829.343 Q 300.318 829.164 302.302 835.840 Q 304.287 842.516 305.338 850.686 Q 306.389 858.857 306.524 863.731 Q 306.660 868.606 305.479 872.053 "></path>
    <path id="STROKE_a5686eed-8795-4e84-8bae-4995d6a22252" opacity="1.000" fill="none" stroke="#000000" stroke-width="5.378" stroke-opacity="1.000" stroke-linecap="round" stroke-linejoin="round" d="M 323.342 842.145 Q 323.242 842.892 323.376 840.721 Q 323.509 838.550 323.135 836.373 Q 322.762 834.196 321.205 833.158 Q 319.648 832.121 317.181 832.763 Q 314.714 833.405 311.620 836.375 Q 308.526 839.344 306.290 843.358 Q 304.054 847.372 303.698 852.210 Q 303.341 857.049 303.879 860.147 Q 304.416 863.245 305.120 864.479 Q 305.825 865.712 307.430 867.719 Q 309.036 869.725 311.591 870.279 Q 314.145 870.833 316.447 870.351 Q 318.748 869.870 319.728 868.942 Q 320.708 868.014 321.876 866.522 Q 323.045 865.031 324.101 860.444 Q 325.157 855.856 323.109 844.586 Q 322.876 844.821 322.695 845.056 "></path>
    <path id="STROKE_05b39e61-9bde-4121-83e3-2089e39db283" opacity="1.000" fill="none" stroke="#000000" stroke-width="5.378" stroke-opacity="1.000" stroke-linecap="round" stroke-linejoin="round" d="M 325.879 849.938 Q 325.946 850.403 325.620 837.805 Q 325.630 838.668 325.872 846.903 Q 326.114 855.138 330.228 865.182 "></path>
    <path id="STROKE_9d80071c-94ff-40c7-aa16-a1140c11cc81" opacity="1.000" fill="none" stroke="#000000" stroke-width="5.378" stroke-opacity="1.000" stroke-linecap="round" stroke-linejoin="round" d="M 333.335 842.795 Q 333.335 841.706 333.335 841.096 Q 333.303 839.581 333.193 846.747 Q 333.083 853.913 335.018 861.981 Q 335.070 861.981 335.121 861.981 Q 335.153 861.519 335.237 861.958 Q 335.321 862.398 334.400 855.578 Q 333.479 848.759 333.338 844.997 Q 333.196 841.236 333.132 839.369 Q 333.067 837.501 334.292 835.749 Q 335.517 833.996 337.074 834.090 Q 338.631 834.184 339.019 834.093 Q 339.408 834.002 342.174 837.449 Q 344.940 840.897 349.593 862.361 "></path>
    <path id="STROKE_2bd5f727-3038-4bdb-9dde-373c49a65e31" opacity="1.000" fill="none" stroke="#000000" stroke-width="5.378" stroke-opacity="1.000" stroke-linecap="round" stroke-linejoin="round" d="M 356.557 837.154 Q 356.454 835.972 356.556 833.141 Q 356.658 830.309 355.872 828.681 Q 355.087 827.052 354.140 826.875 Q 353.192 826.698 352.481 826.615 Q 351.770 826.531 351.003 828.183 Q 350.235 829.834 350.320 831.454 Q 350.404 833.073 350.483 833.854 Q 350.562 834.635 354.223 838.824 Q 357.885 843.013 359.937 845.760 Q 361.990 848.507 363.117 851.471 Q 364.245 854.435 363.087 856.452 Q 361.928 858.470 357.975 859.611 Q 354.023 860.752 350.277 860.841 Q 346.530 860.929 337.840 853.898 "></path>
    <path id="STROKE_d2f3c3da-cbe4-4844-b1bc-e1edd1bd7703" opacity="1.000" fill="none" stroke="#000000" stroke-width="5.378" stroke-opacity="1.000" stroke-linecap="round" stroke-linejoin="round" d="M 322.307 817.118 Q 322.235 817.821 320.624 812.887 Q 320.755 813.435 321.763 814.948 "></path>
    <path id="STROKE_e074f018-a3de-4916-9c1d-e8bbc1db6d48" opacity="1.000" fill="none" stroke="#000000" stroke-width="5.378" stroke-opacity="1.000" stroke-linecap="round" stroke-linejoin="round" d="M 424.124 845.237 Q 424.124 844.911 423.607 842.705 Q 423.566 843.626 423.007 852.123 Q 422.448 860.620 426.519 874.205 L 426.558 874.205 Q 427.180 873.333 425.754 864.680 Q 424.329 856.028 423.965 850.922 Q 423.601 845.817 423.704 843.472 Q 423.807 841.126 423.950 839.659 Q 424.093 838.193 425.370 837.251 Q 426.646 836.309 428.223 836.233 Q 429.799 836.157 432.344 837.806 Q 434.889 839.455 439.735 849.848 "></path>
    <path id="STROKE_e02e745e-7932-4eee-9300-10baf0befae6" opacity="1.000" fill="none" stroke="#000000" stroke-width="5.378" stroke-opacity="1.000" stroke-linecap="round" stroke-linejoin="round" d="M 459.487 840.734 Q 459.441 840.792 460.110 839.929 Q 460.780 839.065 461.235 835.689 Q 459.686 834.980 457.100 835.408 Q 454.513 835.837 452.083 838.850 Q 449.652 841.863 448.336 844.604 Q 447.020 847.346 446.466 850.252 Q 445.912 853.158 445.858 855.401 Q 445.804 857.643 447.173 859.451 Q 448.543 861.258 450.304 861.856 Q 452.066 862.454 454.514 862.115 Q 456.962 861.777 458.908 859.281 Q 460.854 856.784 462.539 853.682 Q 464.223 850.579 463.176 840.210 Q 462.012 839.910 461.462 844.952 Q 460.912 849.993 460.731 853.553 Q 460.551 857.113 461.480 858.883 Q 462.409 860.652 464.270 861.353 Q 466.130 862.054 467.604 861.389 Q 469.078 860.724 469.713 859.785 Q 470.349 858.845 470.961 854.833 Q 471.574 850.822 471.344 842.615 Q 471.213 841.873 471.413 850.131 Q 471.612 858.389 473.110 865.544 Q 474.607 872.699 476.522 878.346 Q 476.943 877.056 474.289 869.564 Q 471.636 862.073 470.552 855.468 Q 469.469 848.863 469.383 845.383 Q 469.297 841.903 469.552 839.696 Q 469.808 837.489 471.147 835.844 Q 472.486 834.199 473.816 833.895 Q 475.147 833.590 477.159 832.996 Q 479.172 832.402 481.813 836.080 Q 484.454 839.757 485.518 842.655 Q 486.583 845.553 487.240 849.778 Q 487.897 854.003 487.948 856.989 Q 487.999 859.974 486.714 862.325 Q 485.430 864.676 482.391 865.350 Q 479.352 866.025 477.007 865.188 Q 474.663 864.351 472.931 861.561 Q 471.198 858.770 470.697 853.518 "></path>
    <path id="STROKE_8512e9bf-2498-4b3d-8790-4f5899a9130e" opacity="1.000" fill="none" stroke="#000000" stroke-width="5.378" stroke-opacity="1.000" stroke-linecap="round" stroke-linejoin="round" d="M 488.094 843.266 Q 488.135 841.605 490.074 837.244 Q 491.360 838.496 491.919 844.410 Q 492.478 850.324 493.272 853.306 Q 494.066 856.289 494.800 858.381 Q 495.533 860.474 499.769 860.390 "></path>
    <path id="STROKE_04f21d9d-9a3f-4b70-9ba2-cd3a41afb631" opacity="1.000" fill="none" stroke="#000000" stroke-width="5.378" stroke-opacity="1.000" stroke-linecap="round" stroke-linejoin="round" d="M 512.480 844.116 Q 512.325 843.907 512.511 841.662 Q 512.697 839.416 512.198 837.650 Q 511.699 835.883 510.447 835.318 Q 509.195 834.753 507.491 834.337 Q 505.787 833.920 503.039 836.434 Q 500.290 838.949 498.984 842.595 Q 497.678 846.241 497.621 849.463 Q 497.564 852.686 498.561 855.194 Q 499.559 857.701 501.833 858.928 Q 504.106 860.154 505.791 860.232 Q 507.476 860.310 508.711 859.894 Q 509.946 859.479 512.355 854.975 Q 514.765 850.471 512.843 811.278 Q 513.069 811.126 512.914 821.330 Q 512.760 831.535 512.844 838.114 Q 512.929 844.693 513.236 848.794 Q 513.543 852.895 519.444 861.330 "></path>
    <path id="STROKE_f2733b29-f999-4345-b63e-49e10ae54d04" opacity="1.000" fill="none" stroke="#000000" stroke-width="5.378" stroke-opacity="1.000" stroke-linecap="round" stroke-linejoin="round" d="M 530.447 841.385 Q 530.304 841.385 529.877 841.385 Q 530.676 841.543 532.861 841.392 Q 535.046 841.241 536.214 841.043 Q 537.383 840.845 537.679 840.432 Q 537.975 840.018 538.299 839.680 Q 538.624 839.341 538.775 838.575 Q 538.926 837.809 538.924 837.160 Q 538.922 836.511 539.117 835.435 Q 539.313 834.359 537.684 833.511 Q 536.056 832.663 534.272 832.914 Q 532.489 833.165 531.156 833.715 Q 529.824 834.265 527.517 837.656 Q 525.210 841.046 524.275 844.213 Q 523.341 847.380 523.431 850.257 Q 523.521 853.134 524.026 854.659 Q 524.532 856.184 525.578 857.210 Q 526.624 858.237 528.980 858.554 Q 531.337 858.870 532.529 858.412 Q 533.721 857.954 534.373 856.454 Q 535.024 854.954 534.485 851.168 "></path>
    <path id="STROKE_15a9a706-b0bc-4308-b985-1fb7d60b6e79" opacity="1.000" fill="none" stroke="#000000" stroke-width="5.378" stroke-opacity="1.000" stroke-linecap="round" stroke-linejoin="round" d="M 495.627 819.559 Q 495.386 819.559 492.443 819.559 Q 492.029 819.404 496.481 820.789 "></path>
    <path id="STROKE_9c3285bf-539c-4e52-aa0b-ffa22f96d945" opacity="1.000" fill="none" stroke="#000000" stroke-width="5.378" stroke-opacity="1.000" stroke-linecap="round" stroke-linejoin="round" d="M 288.911 944.673 Q 288.913 945.741 289.000 942.453 Q 289.088 939.165 287.894 936.370 Q 286.701 933.576 286.273 932.518 Q 285.845 931.460 284.844 931.041 Q 283.842 930.621 281.485 929.922 Q 279.128 929.222 276.430 931.808 Q 273.732 934.393 271.922 938.788 Q 270.113 943.183 269.546 947.269 Q 268.979 951.355 269.606 954.575 Q 270.232 957.794 271.937 960.642 Q 273.641 963.489 276.279 964.688 Q 278.918 965.887 282.201 965.346 Q 285.485 964.805 288.095 962.079 Q 290.705 959.354 292.571 955.829 Q 294.436 952.304 295.087 945.929 Q 295.737 939.553 293.714 928.830 Q 291.691 918.106 290.231 901.582 Q 290.278 900.667 290.176 909.370 Q 290.075 918.074 290.831 928.262 Q 291.587 938.450 292.551 945.070 Q 293.515 951.690 294.573 956.230 Q 295.630 960.769 299.914 963.949 "></path>
    <path id="STROKE_a6767101-e571-4da8-b01d-445823c67bae" opacity="1.000" fill="none" stroke="#000000" stroke-width="5.378" stroke-opacity="1.000" stroke-linecap="round" stroke-linejoin="round" d="M 316.016 940.713 Q 316.016 940.758 316.016 941.047 Q 316.527 941.073 319.833 941.069 Q 323.140 941.065 325.741 939.334 Q 328.342 937.604 329.160 935.028 Q 329.978 932.452 329.035 930.335 Q 328.092 928.218 326.561 927.212 Q 325.029 926.207 322.547 925.712 Q 320.064 925.217 317.972 927.021 Q 315.881 928.825 314.242 933.013 Q 312.602 937.201 312.298 941.963 Q 311.994 946.724 311.763 949.536 Q 311.533 952.348 313.409 955.443 Q 315.285 958.537 316.607 959.955 Q 317.930 961.373 320.162 962.175 Q 322.395 962.977 324.808 963.144 Q 327.221 963.310 330.663 961.153 Q 334.106 958.995 336.701 949.085 "></path>
    <path id="STROKE_d0ec0608-58aa-4e2d-91bd-df7d25dd70f8" opacity="1.000" fill="none" stroke="#000000" stroke-width="5.378" stroke-opacity="1.000" stroke-linecap="round" stroke-linejoin="round" d="M 341.593 923.968 Q 340.222 924.285 338.875 907.043 Q 338.731 907.410 339.512 923.171 Q 340.293 938.932 344.415 960.947 Q 344.586 960.027 344.594 953.117 Q 344.602 946.208 344.907 941.853 Q 345.212 937.498 345.705 934.972 Q 346.197 932.446 347.385 930.326 Q 348.574 928.205 350.096 928.686 Q 351.619 929.167 352.947 930.403 Q 354.276 931.639 356.547 935.817 Q 358.819 939.995 359.555 944.167 Q 360.290 948.340 360.265 951.172 Q 360.240 954.004 358.771 956.412 Q 357.302 958.820 355.966 959.776 Q 354.629 960.732 352.269 961.018 Q 349.908 961.304 348.402 961.361 Q 346.897 961.419 345.883 959.857 Q 344.869 958.295 344.156 955.956 "></path>
    <path id="STROKE_db238d66-573e-49d7-9848-c6a56b55d644" opacity="1.000" fill="none" stroke="#000000" stroke-width="5.378" stroke-opacity="1.000" stroke-linecap="round" stroke-linejoin="round" d="M 362.019 938.362 Q 362.019 936.713 362.019 937.051 Q 361.570 935.156 361.695 935.876 Q 360.796 937.258 360.713 942.186 Q 360.631 947.113 361.371 950.430 Q 362.111 953.747 363.596 955.978 Q 365.081 958.209 366.604 958.986 Q 368.126 959.764 369.996 959.652 Q 371.866 959.540 372.657 953.714 Q 373.448 947.889 373.350 943.748 Q 373.251 939.607 373.306 933.190 Q 373.569 934.445 374.313 941.847 Q 375.057 949.250 375.765 953.826 Q 376.472 958.401 377.304 960.481 Q 378.135 962.560 381.021 962.828 "></path>
    <path id="STROKE_26af27bf-c999-4ca5-b5ca-ade1e87d4270" opacity="1.000" fill="none" stroke="#000000" stroke-width="5.378" stroke-opacity="1.000" stroke-linecap="round" stroke-linejoin="round" d="M 403.699 938.362 Q 404.034 936.938 404.080 935.375 Q 404.126 933.812 403.673 932.646 Q 403.221 931.479 403.032 931.453 Q 402.843 931.427 402.186 931.021 Q 401.528 930.615 398.871 930.391 Q 396.213 930.167 393.753 930.667 Q 391.292 931.168 388.492 934.076 Q 385.693 936.985 384.631 940.370 Q 383.570 943.755 383.196 946.646 Q 382.822 949.537 383.452 952.283 Q 384.082 955.029 385.910 956.616 Q 387.739 958.203 389.424 958.666 Q 391.109 959.129 392.629 959.108 Q 394.149 959.087 396.394 958.183 Q 398.638 957.279 399.976 955.066 Q 401.313 952.853 402.087 948.697 Q 402.861 944.541 400.178 936.391 L 400.126 936.391 Q 400.096 936.345 399.562 941.560 Q 399.028 946.775 402.940 959.607 Q 406.852 972.439 409.101 978.940 Q 411.350 985.440 412.463 991.008 Q 413.576 996.575 413.454 1000.955 Q 413.331 1005.335 412.241 1008.899 Q 411.151 1012.463 408.326 1014.462 Q 405.500 1016.462 401.756 1016.957 Q 398.013 1017.452 394.911 1016.885 Q 391.810 1016.319 388.567 1012.700 Q 385.325 1009.081 383.363 1004.487 Q 381.401 999.894 380.733 995.188 Q 380.066 990.482 380.418 987.210 Q 380.771 983.938 382.082 981.915 Q 383.393 979.892 386.768 976.842 "></path>
    <path id="STROKE_b4807cfd-b8fe-4aad-a1cd-0aea1e958194" opacity="1.000" fill="none" stroke="#000000" stroke-width="5.378" stroke-opacity="1.000" stroke-linecap="round" stroke-linejoin="round" d="M 427.412 946.264 Q 427.291 946.387 427.769 945.200 Q 428.247 944.012 428.883 940.788 Q 429.518 937.564 429.558 936.269 Q 429.598 934.975 429.438 934.287 Q 429.278 933.599 428.902 933.114 Q 428.526 932.629 428.581 932.865 Q 428.636 933.101 427.994 932.505 Q 427.352 931.909 425.116 933.248 Q 422.880 934.586 421.482 936.980 Q 420.084 939.374 419.031 941.012 Q 417.978 942.650 416.607 946.533 Q 415.237 950.416 415.216 953.920 Q 415.194 957.424 415.209 959.075 Q 415.224 960.726 416.493 962.240 Q 417.762 963.755 419.629 964.033 Q 421.495 964.312 423.388 963.976 Q 425.280 963.640 428.201 959.404 Q 431.122 955.169 431.269 939.212 Q 430.890 939.574 430.621 945.231 Q 430.353 950.888 430.286 954.319 Q 430.219 957.750 430.556 959.291 Q 430.893 960.831 431.866 962.579 Q 432.839 964.326 434.659 965.253 Q 436.479 966.180 438.160 965.211 Q 439.841 964.243 439.461 954.608 Q 439.081 944.973 437.722 937.461 Q 436.364 929.949 436.447 913.064 Q 436.041 914.907 437.699 930.207 Q 439.357 945.507 444.343 968.560 Q 444.763 968.259 443.845 960.824 Q 442.928 953.388 442.862 949.050 Q 442.796 944.712 443.067 941.739 Q 443.338 938.767 445.020 937.620 Q 446.701 936.473 448.997 938.993 Q 451.293 941.514 453.405 945.653 Q 455.517 949.793 456.906 953.199 Q 458.295 956.604 458.953 958.860 Q 459.610 961.116 459.587 963.048 Q 459.563 964.981 459.379 965.659 Q 459.194 966.337 459.105 966.461 Q 459.015 966.586 458.206 967.444 Q 457.396 968.301 456.362 968.712 Q 455.327 969.122 453.335 969.333 Q 451.342 969.545 449.283 969.603 Q 447.224 969.662 445.492 968.281 Q 443.760 966.900 442.375 958.488 "></path>
    <path id="STROKE_c122de8d-9aa5-403a-a852-170e8d82a981" opacity="1.000" fill="none" stroke="#000000" stroke-width="5.378" stroke-opacity="1.000" stroke-linecap="round" stroke-linejoin="round" d="M 464.587 944.944 Q 464.682 945.321 464.555 946.197 Q 464.427 947.074 464.785 947.957 Q 465.143 948.839 466.359 949.127 Q 467.575 949.415 469.113 949.360 Q 470.651 949.305 471.213 948.895 Q 471.775 948.485 471.839 948.305 Q 471.903 948.126 471.953 948.277 Q 472.004 948.429 473.547 946.045 Q 475.089 943.662 476.364 935.402 Q 477.638 927.142 477.121 920.632 Q 476.603 914.121 476.041 911.001 Q 475.480 907.881 475.156 906.593 Q 474.833 905.305 472.587 904.593 Q 471.686 904.845 468.611 911.584 Q 465.535 918.323 465.021 928.144 Q 464.506 937.965 464.526 942.879 Q 464.545 947.793 465.559 952.233 Q 466.573 956.672 467.867 959.603 Q 469.161 962.535 470.893 964.339 Q 472.625 966.144 475.197 966.899 Q 477.770 967.655 479.586 965.457 Q 481.402 963.259 482.373 957.733 Q 483.345 952.208 483.162 945.993 Q 481.703 947.788 482.178 947.539 Q 481.779 948.805 481.657 950.381 Q 481.535 951.958 482.711 952.741 Q 483.886 953.525 486.242 953.578 Q 488.599 953.631 490.632 953.385 Q 492.665 953.139 494.620 952.004 Q 496.576 950.869 497.281 949.914 Q 497.986 948.958 498.135 948.356 Q 498.284 947.755 498.318 947.229 Q 498.353 946.704 498.477 945.922 Q 498.601 945.140 498.332 943.451 Q 498.063 941.763 496.193 939.993 Q 494.323 938.223 492.334 937.511 Q 490.345 936.798 488.326 936.989 Q 486.308 937.181 484.515 939.493 Q 482.723 941.805 481.689 944.019 Q 480.655 946.232 480.159 949.923 Q 479.663 953.615 479.786 956.382 Q 479.909 959.148 481.544 961.409 Q 483.180 963.669 486.603 964.991 Q 490.025 966.313 493.131 966.423 Q 496.238 966.533 499.966 964.400 Q 503.694 962.267 508.416 955.197 "></path>
    <path id="STROKE_f1ad86a6-c66f-4086-b1ee-10dff06f0755" opacity="1.000" fill="none" stroke="#000000" stroke-width="5.378" stroke-opacity="1.000" stroke-linecap="round" stroke-linejoin="round" d="M 1301.491 363.422 Q 1301.491 361.069 1301.491 361.424 Q 1301.531 357.987 1301.545 358.917 Q 1302.039 356.619 1301.946 357.059 Q 1302.881 355.072 1302.548 355.800 L 1302.548 355.736 Q 1305.000 355.276 1300.835 396.917 Q 1302.179 397.590 1311.038 386.329 "></path>
    <path id="STROKE_70265309-d5c7-48bd-8a6b-4b97b152f1fd" opacity="1.000" fill="none" stroke="#000000" stroke-width="5.378" stroke-opacity="1.000" stroke-linecap="round" stroke-linejoin="round" d="M 1337.127 366.604 Q 1339.373 363.769 1339.569 357.263 Q 1337.613 356.887 1333.404 356.387 Q 1329.196 355.886 1324.356 359.593 Q 1319.517 363.299 1317.412 366.799 Q 1315.308 370.300 1314.127 374.768 Q 1312.947 379.237 1313.967 381.254 Q 1314.986 383.271 1316.902 385.169 Q 1318.817 387.068 1324.401 387.966 Q 1329.986 388.865 1333.152 388.458 Q 1336.319 388.052 1336.885 388.356 Q 1337.451 388.660 1343.340 386.589 Q 1349.230 384.518 1350.897 379.572 Q 1352.565 374.627 1352.523 371.689 Q 1352.482 368.752 1352.468 366.451 Q 1352.565 366.643 1351.901 372.984 Q 1351.236 379.326 1351.377 384.600 Q 1351.517 389.874 1356.385 391.941 Q 1356.986 391.216 1357.387 390.554 "></path>
    <path id="STROKE_3e8bf682-d0ca-4bba-a016-69420d9f07f4" opacity="1.000" fill="none" stroke="#000000" stroke-width="5.378" stroke-opacity="1.000" stroke-linecap="round" stroke-linejoin="round" d="M 1354.326 351.104 Q 1353.547 349.312 1352.322 341.432 Q 1352.374 340.163 1352.212 349.907 "></path>
    <path id="STROKE_3721a11a-dfca-4338-bc7c-fec6d6f316b1" opacity="1.000" fill="none" stroke="#000000" stroke-width="5.378" stroke-opacity="1.000" stroke-linecap="round" stroke-linejoin="round" d="M 1308.778 342.883 Q 1309.376 344.526 1299.633 337.004 Q 1299.705 336.927 1304.661 337.996 "></path>
    <path id="STROKE_c205e1d7-1d92-4cee-9c91-60d8af8e0e86" opacity="1.000" fill="none" stroke="#000000" stroke-width="5.378" stroke-opacity="1.000" stroke-linecap="round" stroke-linejoin="round" d="M 1491.515 367.113 Q 1492.774 365.436 1492.663 365.331 Q 1492.909 364.859 1493.231 362.894 Q 1493.554 360.930 1493.142 358.676 Q 1492.730 356.423 1488.731 355.850 Q 1484.732 355.276 1480.847 356.471 Q 1476.961 357.666 1473.254 360.939 Q 1469.548 364.211 1468.095 368.498 Q 1466.643 372.785 1466.985 376.053 Q 1467.327 379.320 1468.327 381.867 Q 1469.326 384.414 1472.781 386.804 Q 1476.235 389.194 1480.596 389.602 Q 1484.958 390.010 1489.070 390.022 Q 1493.182 390.033 1497.171 387.247 Q 1501.160 384.460 1505.033 377.573 "></path>
    <path id="STROKE_15acd30f-67c1-4a20-8c80-18bd8172328c" opacity="1.000" fill="none" stroke="#000000" stroke-width="5.378" stroke-opacity="1.000" stroke-linecap="round" stroke-linejoin="round" d="M 1583.047 359.706 Q 1581.851 359.994 1583.894 350.018 Q 1585.938 340.043 1587.627 334.325 Q 1589.317 328.607 1590.186 323.412 Q 1591.055 318.216 1595.163 306.614 Q 1597.444 309.720 1593.382 322.650 Q 1589.321 335.579 1585.879 349.548 Q 1582.436 363.516 1580.660 395.593 Q 1582.968 397.590 1596.675 381.951 "></path>
    <path id="STROKE_6b91c55f-d8da-49ae-aae4-766397fe64bc" opacity="1.000" fill="none" stroke="#000000" stroke-width="5.378" stroke-opacity="1.000" stroke-linecap="round" stroke-linejoin="round" d="M 1613.108 378.515 Q 1614.589 379.240 1615.422 368.385 Q 1614.179 367.221 1609.727 368.204 Q 1605.275 369.186 1601.458 372.722 Q 1597.641 376.259 1596.159 380.362 Q 1594.678 384.465 1594.742 387.984 Q 1594.807 391.504 1596.662 394.082 Q 1598.518 396.660 1600.241 397.169 Q 1601.963 397.679 1603.575 398.013 Q 1605.186 398.347 1607.375 397.788 Q 1609.564 397.229 1612.685 393.940 Q 1615.806 390.651 1618.538 374.137 Q 1618.063 376.061 1617.481 376.784 "></path>
    <path id="STROKE_f335700b-74b4-4921-81f2-92846a63cb7a" opacity="1.000" fill="none" stroke="#000000" stroke-width="5.378" stroke-opacity="1.000" stroke-linecap="round" stroke-linejoin="round" d="M 1626.736 376.657 Q 1627.465 375.277 1629.396 370.422 Q 1630.051 369.616 1627.976 376.505 Q 1625.901 383.394 1625.953 391.941 Q 1624.799 393.658 1633.368 387.118 "></path>
    <path id="STROKE_f77f3042-9983-43ec-83b5-f8d6d90b4917" opacity="1.000" fill="none" stroke="#000000" stroke-width="5.378" stroke-opacity="1.000" stroke-linecap="round" stroke-linejoin="round" d="M 1641.712 370.574 Q 1641.712 370.434 1641.639 370.167 Q 1641.567 370.167 1641.312 370.167 Q 1640.995 371.679 1638.396 392.412 Q 1637.531 392.320 1638.984 385.916 Q 1640.437 379.512 1642.286 376.480 Q 1644.134 373.447 1646.404 370.909 Q 1648.674 368.370 1650.236 367.721 Q 1651.798 367.072 1652.287 367.066 Q 1652.776 367.060 1653.751 366.871 Q 1654.726 366.683 1656.746 367.411 Q 1658.766 368.139 1659.646 375.138 Q 1660.527 382.138 1660.210 387.118 Q 1659.893 392.099 1658.996 394.318 Q 1658.100 396.537 1656.687 397.262 Q 1655.273 397.987 1653.989 397.610 Q 1652.705 397.233 1651.368 395.720 "></path>
    <path id="STROKE_72556e19-ffe0-4568-8798-e38acd29e5dc" opacity="1.000" fill="none" stroke="#000000" stroke-width="5.378" stroke-opacity="1.000" stroke-linecap="round" stroke-linejoin="round" d="M 1632.457 356.805 Q 1631.312 357.724 1630.380 352.822 Q 1632.432 352.043 1634.680 354.005 "></path>
    <path id="STROKE_857476d5-21bc-45cf-a793-abe56a27a7a9" opacity="1.000" fill="none" stroke="#000000" stroke-width="5.378" stroke-opacity="1.000" stroke-linecap="round" stroke-linejoin="round" d="M -2417.576 1558.912 Q -2416.419 1557.502 -2414.160 1517.899 Q -2414.624 1516.998 -2414.894 1531.963 Q -2415.163 1546.928 -2415.673 1560.417 Q -2416.184 1573.906 -2415.844 1584.488 Q -2415.504 1595.070 -2413.316 1603.313 Q -2413.169 1603.331 -2412.847 1603.294 Q -2412.612 1602.904 -2411.256 1596.776 "></path>
    <path id="STROKE_612bb0ab-6ff0-43db-8ed7-8ca9a613b57c" opacity="1.000" fill="none" stroke="#000000" stroke-width="5.378" stroke-opacity="1.000" stroke-linecap="round" stroke-linejoin="round" d="M -2385.203 1573.044 Q -2384.838 1571.254 -2384.676 1568.604 Q -2384.514 1565.955 -2385.597 1563.660 Q -2386.679 1561.365 -2388.697 1561.013 Q -2390.716 1560.661 -2392.420 1561.342 Q -2394.124 1562.022 -2397.240 1566.427 Q -2400.355 1570.833 -2401.860 1575.423 Q -2403.364 1580.013 -2403.677 1582.911 Q -2403.991 1585.810 -2404.042 1588.507 Q -2404.094 1591.203 -2402.404 1593.376 Q -2400.714 1595.548 -2399.833 1596.124 Q -2398.952 1596.699 -2395.492 1597.132 Q -2392.032 1597.565 -2389.297 1589.508 Q -2386.562 1581.450 -2385.262 1571.024 Q -2384.996 1569.035 -2385.767 1575.932 Q -2386.538 1582.829 -2386.514 1586.525 Q -2386.490 1590.222 -2385.463 1592.007 Q -2384.436 1593.792 -2385.119 1593.110 Q -2385.803 1592.428 -2382.664 1594.745 "></path>
    <path id="STROKE_10ce24cf-83ea-4d21-807a-b7e7aa2f3cb2" opacity="1.000" fill="none" stroke="#000000" stroke-width="5.378" stroke-opacity="1.000" stroke-linecap="round" stroke-linejoin="round" d="M -2478.430 1687.764 Q -2480.028 1687.577 -2479.810 1687.603 Q -2480.123 1687.566 -2480.729 1687.495 Q -2481.313 1689.469 -2476.428 1689.995 Q -2471.543 1690.522 -2468.360 1690.953 Q -2465.176 1691.384 -2461.843 1688.984 Q -2458.510 1686.584 -2457.455 1685.903 Q -2456.400 1685.222 -2454.531 1681.862 Q -2452.661 1678.502 -2453.315 1676.848 Q -2453.969 1675.195 -2457.487 1672.852 Q -2461.006 1670.510 -2464.210 1669.950 Q -2467.414 1669.390 -2469.481 1668.931 Q -2471.549 1668.473 -2473.926 1670.297 Q -2476.302 1672.122 -2478.069 1675.921 Q -2479.836 1679.720 -2481.307 1685.820 Q -2482.777 1691.920 -2481.640 1695.433 Q -2480.503 1698.946 -2478.876 1700.746 Q -2477.249 1702.546 -2475.568 1703.566 Q -2473.886 1704.586 -2472.201 1705.231 Q -2470.516 1705.876 -2466.709 1706.668 Q -2462.903 1707.459 -2458.961 1706.553 Q -2455.020 1705.648 -2451.627 1702.444 Q -2448.235 1699.240 -2446.688 1693.880 Q -2445.141 1688.519 -2444.445 1683.354 Q -2443.750 1678.189 -2445.741 1673.573 Q -2446.074 1673.443 -2447.506 1682.223 Q -2448.937 1691.003 -2446.825 1703.020 Q -2446.297 1701.003 -2445.632 1692.581 Q -2444.966 1684.158 -2444.296 1678.975 Q -2443.625 1673.792 -2441.942 1671.560 Q -2440.259 1669.328 -2437.876 1668.768 Q -2435.494 1668.208 -2434.664 1668.671 Q -2433.833 1669.134 -2432.417 1670.480 Q -2431.001 1671.827 -2429.508 1676.701 Q -2428.016 1681.574 -2427.171 1702.396 "></path>
    <path id="STROKE_0d9ffa09-87eb-4ad4-bf2f-2adf69b664e5" opacity="1.000" fill="none" stroke="#000000" stroke-width="5.378" stroke-opacity="1.000" stroke-linecap="round" stroke-linejoin="round" d="M -2395.774 1673.578 Q -2395.519 1673.614 -2395.611 1670.658 Q -2395.704 1667.703 -2396.560 1666.002 Q -2397.417 1664.301 -2399.535 1663.636 Q -2401.654 1662.971 -2403.538 1663.247 Q -2405.422 1663.523 -2405.124 1663.462 Q -2404.825 1663.400 -2408.690 1665.780 Q -2412.555 1668.160 -2415.691 1675.119 Q -2418.828 1682.077 -2419.808 1686.934 Q -2420.787 1691.792 -2421.059 1695.498 Q -2421.331 1699.205 -2418.385 1703.460 Q -2415.439 1707.715 -2411.052 1708.785 Q -2406.666 1709.856 -2402.146 1709.168 Q -2397.625 1708.479 -2390.438 1701.764 "></path>
    <path id="STROKE_71bea867-741d-46ca-a6e7-87afdaaa4b7f" opacity="1.000" fill="none" stroke="#000000" stroke-width="5.378" stroke-opacity="1.000" stroke-linecap="round" stroke-linejoin="round" d="M -2362.362 1673.799 Q -2365.824 1672.271 -2368.467 1669.124 Q -2371.110 1665.977 -2373.751 1665.248 Q -2376.392 1664.520 -2377.855 1663.789 Q -2379.318 1663.058 -2383.148 1663.889 Q -2386.979 1664.721 -2390.095 1669.683 Q -2393.212 1674.645 -2394.530 1680.524 Q -2395.849 1686.402 -2395.613 1690.466 Q -2395.376 1694.530 -2393.593 1698.225 Q -2391.810 1701.920 -2387.579 1703.775 Q -2383.349 1705.630 -2380.145 1704.967 Q -2376.941 1704.303 -2373.917 1703.000 Q -2370.892 1701.696 -2368.197 1699.237 Q -2365.502 1696.778 -2363.493 1689.721 Q -2361.484 1682.664 -2361.348 1675.635 "></path>
    <path id="STROKE_ea3a51fb-cb0d-4856-aa9f-855817fa82f3" opacity="1.000" fill="none" stroke="#000000" stroke-width="5.378" stroke-opacity="1.000" stroke-linecap="round" stroke-linejoin="round" d="M -2356.062 1684.396 Q -2357.037 1682.909 -2358.242 1675.526 Q -2358.651 1679.265 -2358.553 1678.717 Q -2358.365 1680.709 -2357.778 1692.514 Q -2360.922 1691.709 -2359.986 1691.648 Q -2360.980 1690.732 -2361.208 1683.074 Q -2361.435 1675.416 -2358.733 1670.131 Q -2356.031 1664.847 -2353.589 1663.057 Q -2351.146 1661.267 -2347.952 1660.610 Q -2344.757 1659.953 -2342.654 1662.164 Q -2340.552 1664.376 -2338.729 1672.133 "></path>
    <path id="STROKE_a1a1e00b-7ecd-41bd-bedd-1af447fd2aa2" opacity="1.000" fill="none" stroke="#000000" stroke-width="5.378" stroke-opacity="1.000" stroke-linecap="round" stroke-linejoin="round" d="M -2329.245 1668.599 Q -2329.323 1669.095 -2329.271 1669.543 Q -2330.247 1669.404 -2325.695 1669.666 Q -2321.144 1669.928 -2317.945 1668.956 Q -2314.746 1667.983 -2313.625 1665.648 Q -2312.503 1663.312 -2312.698 1662.081 Q -2312.892 1660.849 -2313.378 1660.146 Q -2313.865 1659.444 -2314.361 1659.168 Q -2314.857 1658.892 -2314.809 1658.860 Q -2314.761 1658.828 -2315.572 1658.467 Q -2316.383 1658.105 -2318.899 1657.699 Q -2321.415 1657.294 -2323.938 1656.886 Q -2326.460 1656.478 -2328.555 1659.586 Q -2330.649 1662.695 -2331.716 1669.009 Q -2332.783 1675.323 -2332.379 1678.993 Q -2331.975 1682.664 -2329.104 1686.160 Q -2326.233 1689.657 -2318.994 1691.716 Q -2311.755 1693.774 -2300.154 1689.746 "></path>
    <path id="STROKE_0f9e656a-3a3a-4f3f-8d1c-18281a776fb4" opacity="1.000" fill="none" stroke="#000000" stroke-width="5.378" stroke-opacity="1.000" stroke-linecap="round" stroke-linejoin="round" d="M -2474.589 1798.013 Q -2474.589 1798.013 -2474.798 1797.933 Q -2475.007 1797.854 -2473.045 1782.697 L -2472.869 1782.643 Q -2472.007 1781.956 -2472.020 1797.446 Q -2472.033 1812.936 -2468.130 1830.179 L -2468.067 1830.187 Q -2466.255 1830.225 -2469.038 1814.161 Q -2471.822 1798.096 -2472.681 1787.661 Q -2473.541 1777.226 -2473.170 1771.740 Q -2472.799 1766.254 -2472.260 1763.699 Q -2471.720 1761.143 -2471.324 1760.742 Q -2470.927 1760.341 -2470.323 1759.445 Q -2469.718 1758.548 -2466.158 1758.310 Q -2462.597 1758.071 -2459.617 1760.508 Q -2456.637 1762.945 -2454.939 1764.968 Q -2453.242 1766.991 -2451.598 1769.365 Q -2449.953 1771.738 -2448.128 1775.787 Q -2446.303 1779.837 -2446.470 1784.837 Q -2446.638 1789.838 -2446.654 1792.372 Q -2446.670 1794.907 -2449.681 1797.686 Q -2452.693 1800.464 -2457.644 1801.366 Q -2462.595 1802.267 -2466.190 1802.028 Q -2469.784 1801.789 -2473.396 1800.271 Q -2477.007 1798.752 -2471.962 1792.607 "></path>
    <path id="STROKE_2b91af57-923d-4e07-98c6-459d72ed70fe" opacity="1.000" fill="none" stroke="#000000" stroke-width="5.378" stroke-opacity="1.000" stroke-linecap="round" stroke-linejoin="round" d="M -2442.311 1752.661 Q -2442.737 1751.553 -2444.200 1727.957 Q -2443.681 1727.194 -2442.940 1744.325 Q -2442.200 1761.455 -2440.697 1772.448 Q -2439.193 1783.441 -2437.769 1788.758 Q -2436.344 1794.076 -2435.879 1795.552 Q -2435.415 1797.030 -2433.413 1800.966 Q -2431.410 1804.903 -2427.615 1805.821 Q -2424.431 1803.066 -2430.109 1764.247 Q -2430.058 1763.545 -2430.445 1768.978 Q -2430.831 1774.411 -2429.033 1782.283 Q -2427.234 1790.155 -2425.446 1793.205 Q -2423.658 1796.255 -2422.299 1797.067 Q -2420.941 1797.879 -2418.748 1797.443 Q -2416.556 1797.007 -2416.014 1794.766 Q -2415.473 1792.524 -2415.050 1791.072 Q -2414.627 1789.619 -2413.856 1784.852 Q -2413.086 1780.084 -2413.236 1768.536 Q -2413.704 1768.212 -2412.719 1774.985 Q -2411.734 1781.759 -2410.668 1784.855 Q -2409.603 1787.951 -2406.728 1791.050 Q -2403.852 1794.149 -2398.548 1792.500 Q -2393.243 1790.851 -2391.245 1786.780 Q -2389.247 1782.708 -2387.500 1776.230 Q -2385.753 1769.752 -2392.266 1753.443 L -2392.349 1753.434 Q -2393.635 1754.439 -2392.131 1760.822 Q -2390.627 1767.206 -2385.554 1774.416 Q -2380.482 1781.627 -2377.591 1785.075 Q -2374.701 1788.523 -2373.722 1791.559 Q -2372.743 1794.595 -2372.648 1798.014 Q -2372.552 1801.432 -2375.047 1803.744 Q -2377.543 1806.056 -2384.144 1808.189 Q -2390.745 1810.322 -2401.194 1807.842 "></path>
    <path id="STROKE_ad156a92-b82a-4503-b50b-586146ad1f4e" opacity="1.000" fill="none" stroke="#000000" stroke-width="5.378" stroke-opacity="1.000" stroke-linecap="round" stroke-linejoin="round" d="M -1398.084 1827.043 Q -1405.711 1825.642 -1404.760 1810.629 Q -1405.928 1807.766 -1379.318 1819.537 "></path>
  </g>
</svg>